<svg width="4358" height="3939" viewBox="0 0 4358 3939" fill="none" xmlns="http://www.w3.org/2000/svg">
<g clip-path="url(#clip0_134_174)">
<path fill-rule="evenodd" clip-rule="evenodd" d="M592.72 2125.34H548.06V2042.58H885.12V1287.76H805.86V1205H1537.1V1287.76H1457.84V2042.58H1794.9V2125.34H1750.25V3005.26H592.72V2125.34Z" fill="#EDF6FB" stroke="#68A8C4" stroke-width="0.24" stroke-linecap="round" stroke-linejoin="round"/>
<path fill-rule="evenodd" clip-rule="evenodd" d="M2327.11 730.54H2212.14V616.51H3872.74V730.54H3757.77V1050.37H3815.26V1164.4H3757.77V1484.23H3815.26V1598.26H3757.77V1918.09H3815.26V2032.12H3757.77V2351.95H3815.26V2465.98H3757.77V2828.65H3815.26V3005.26H2269.63V2828.65H2327.11V2465.98H2269.63V2351.95H2327.11V2032.12H2269.63V1918.09H2327.11V1598.26H2269.63V1484.23H2327.11V1164.4H2269.63V1050.37H2327.11V730.54Z" fill="#EDF6FB" stroke="#68A8C4" stroke-width="0.24" stroke-linecap="round" stroke-linejoin="round"/>
<path fill-rule="evenodd" clip-rule="evenodd" d="M1246.02 370.69H1171.48V232.53H1734.12V138.27H1601.82V0.119995H2822.46V138.27H2690.16V232.53H3252.8V370.69H3178.26V3005.26H1246.02V370.69Z" fill="#E7F6FF" stroke="#68A8C4" stroke-width="0.24" stroke-linecap="round" stroke-linejoin="round"/>
<path fill-rule="evenodd" clip-rule="evenodd" d="M1676.09 3307.95C1801.87 3287.76 1884.04 3254.52 1884.04 3216.96C1884.04 3201.97 1870.95 3187.66 1847.21 3174.6C1955.76 3124.43 2020.96 3073.68 2011.6 3038.77C2004.75 3013.2 1959.04 3000.27 1888.29 2999.43C1966.62 2930.62 2007.57 2872.46 1990.93 2843.63C1983.43 2830.65 1964.94 2824.8 1937.86 2825.36C2006.79 2727.64 2037.87 2651.09 2012.31 2625.53C2000.1 2613.32 1976.24 2614.04 1943.99 2625.64C1975.32 2521.54 1978.54 2448.22 1946.25 2429.58C1913.96 2410.94 1852.08 2450.38 1777.58 2529.57C1771.51 2495.84 1760.2 2474.82 1743.52 2470.35C1711.55 2461.78 1666.29 2515.74 1620.36 2608.27C1626.75 2505.55 1614.52 2436.49 1582.61 2427.94C1565.93 2423.47 1545.63 2436.02 1523.5 2462.19C1498.58 2356.37 1464.71 2291.27 1427.42 2291.27C1390.13 2291.27 1356.26 2356.37 1331.34 2462.19C1309.22 2436.02 1288.91 2423.46 1272.23 2427.94C1248.77 2434.23 1235.94 2473.24 1233.34 2534.29C1189.54 2521.88 1154.28 2524.21 1144.72 2558.24C1074.63 2416.39 1005.45 2333.52 956.66 2346.6C934.68 2352.49 918.85 2377.3 909.03 2417.22C792.86 2277.8 692.86 2202.17 645.36 2229.6C622.66 2242.71 614.34 2277.96 618.69 2329.79C478.39 2242.98 372.19 2209.46 332.18 2249.47C292.17 2289.48 325.68 2395.69 412.49 2535.98C360.66 2531.64 325.41 2539.95 312.3 2562.65C284.87 2610.16 360.5 2710.15 499.92 2826.32C460 2836.14 435.19 2851.97 429.3 2873.95C416.23 2922.74 499.09 2991.92 640.94 3062.01C606.9 3071.56 604.58 3106.83 616.99 3150.63C555.94 3153.23 516.92 3166.05 510.64 3189.52C506.17 3206.21 518.72 3226.51 544.9 3248.63C475.19 3265.05 423.15 3285.35 395.75 3307.95H1676.11H1676.09Z" fill="#6BB98A"/>
<mask id="mask0_134_174" style="mask-type:luminance" maskUnits="userSpaceOnUse" x="306" y="2224" width="1716" height="1084">
<path d="M1676.09 3307.95C1801.87 3287.76 1884.04 3254.52 1884.04 3216.96C1884.04 3201.97 1870.95 3187.66 1847.21 3174.6C1955.76 3124.43 2020.96 3073.68 2011.6 3038.77C2004.75 3013.2 1959.04 3000.27 1888.29 2999.43C1966.62 2930.62 2007.57 2872.46 1990.93 2843.63C1983.43 2830.65 1964.94 2824.8 1937.86 2825.36C2006.79 2727.64 2037.87 2651.09 2012.31 2625.53C2000.1 2613.32 1976.24 2614.04 1943.99 2625.64C1975.32 2521.54 1978.54 2448.22 1946.25 2429.58C1913.96 2410.94 1852.08 2450.38 1777.58 2529.57C1771.51 2495.84 1760.2 2474.82 1743.52 2470.35C1711.55 2461.78 1666.29 2515.74 1620.36 2608.27C1626.75 2505.55 1614.52 2436.49 1582.61 2427.94C1565.93 2423.47 1545.63 2436.02 1523.5 2462.19C1498.58 2356.37 1464.71 2291.27 1427.42 2291.27C1390.13 2291.27 1356.26 2356.37 1331.34 2462.19C1309.22 2436.02 1288.91 2423.46 1272.23 2427.94C1248.77 2434.23 1235.94 2473.24 1233.34 2534.29C1189.54 2521.88 1154.28 2524.21 1144.72 2558.24C1074.63 2416.39 1005.45 2333.52 956.66 2346.6C934.68 2352.49 918.85 2377.3 909.03 2417.22C792.86 2277.8 692.86 2202.17 645.36 2229.6C622.66 2242.71 614.34 2277.96 618.69 2329.79C478.39 2242.98 372.19 2209.46 332.18 2249.47C292.17 2289.48 325.68 2395.69 412.49 2535.98C360.66 2531.64 325.41 2539.95 312.3 2562.65C284.87 2610.16 360.5 2710.15 499.92 2826.32C460 2836.14 435.19 2851.97 429.3 2873.95C416.23 2922.74 499.09 2991.92 640.94 3062.01C606.9 3071.56 604.58 3106.83 616.99 3150.63C555.94 3153.23 516.92 3166.05 510.64 3189.52C506.17 3206.21 518.72 3226.51 544.9 3248.63C475.19 3265.05 423.15 3285.35 395.75 3307.95H1676.11H1676.09Z" fill="white"/>
</mask>
<g mask="url(#mask0_134_174)">
<path fill-rule="evenodd" clip-rule="evenodd" d="M517.52 3870.34C542.35 3895.17 612.22 3890.2 708.34 3861.28C696.74 3893.53 696.02 3917.38 708.23 3929.6C733.79 3955.16 810.34 3924.08 908.06 3855.15C907.5 3882.24 913.35 3900.73 926.33 3908.22C955.16 3924.86 1013.32 3883.92 1082.13 3805.58C1082.97 3876.33 1095.9 3922.04 1121.47 3928.89C1156.39 3938.25 1207.14 3873.05 1257.3 3764.5C1270.36 3788.23 1284.67 3801.33 1299.66 3801.33C1347.67 3801.33 1388.62 3667.08 1404.27 3479.12C1406.77 3449.04 1410.78 3412.37 1409.76 3385.1C1408.88 3361.58 1398.15 3315.46 1398.15 3315.46C1398.15 3315.46 1444.27 3326.19 1467.79 3327.07C1495.07 3328.09 1531.74 3324.08 1561.81 3321.58C1749.78 3305.93 1884.02 3264.97 1884.02 3216.97C1884.02 3201.98 1870.93 3187.67 1847.19 3174.61C1955.74 3124.44 2020.94 3073.69 2011.58 3038.78C2004.73 3013.21 1959.02 3000.28 1888.27 2999.44C1966.6 2930.63 2007.55 2872.47 1990.91 2843.64C1983.41 2830.66 1964.92 2824.81 1937.84 2825.37C2006.77 2727.65 2037.85 2651.1 2012.29 2625.54C2000.08 2613.33 1976.22 2614.05 1943.97 2625.65C1973.23 2528.42 1977.97 2458.05 1952.16 2433.99C1952.9 2435.63 1954.17 2438.62 1954.71 2440.9C1956.43 2448.16 1956.99 2456.84 1956.78 2466.76C1956.15 2497.89 1923.14 2566.91 1908.66 2615.04C1904.65 2628.37 1908.49 2642.83 1918.59 2652.41C1928.69 2661.99 1943.33 2665.06 1956.43 2660.35C1965.54 2657.07 1976.94 2655.27 1983.68 2654.43C1983.34 2658.69 1982.67 2664.44 1981.39 2669.13C1972.11 2703.25 1945.89 2750.01 1907.7 2804.15C1899.69 2815.51 1898.75 2830.42 1905.27 2842.69C1911.79 2854.97 1924.67 2862.53 1938.57 2862.24C1944.24 2862.12 1950.94 2863.06 1955.64 2863.88C1953.34 2869.7 1949.31 2878.98 1944.58 2886.03C1927.97 2910.78 1900.16 2939.94 1863.93 2971.77C1852.46 2981.84 1848.39 2997.94 1853.69 3012.25C1858.99 3026.56 1872.56 3036.13 1887.82 3036.31C1918.86 3036.68 1944.44 3039.33 1962.98 3045.07C1966.09 3046.03 1969.74 3047.71 1972.62 3049.15C1970.19 3052.7 1966.61 3057.55 1963.04 3061.09C1937.95 3086 1891.85 3113.38 1831.71 3141.17C1819.09 3147 1810.82 3159.44 1810.34 3173.34C1809.85 3187.24 1817.23 3200.22 1829.41 3206.93C1834.59 3209.78 1840.16 3214.17 1843.82 3217.26C1842.65 3218.35 1841.38 3219.46 1840.22 3220.31C1832.6 3225.86 1822.57 3231.02 1810.53 3236.05C1756.25 3258.71 1666.7 3275.9 1558.74 3284.89C1530.08 3287.28 1495.14 3291.25 1469.15 3290.28C1447.98 3289.49 1406.49 3279.6 1406.49 3279.6C1394.09 3276.71 1381.08 3280.43 1372.08 3289.44C1363.08 3298.44 1359.36 3311.45 1362.24 3323.86C1362.24 3323.86 1372.12 3365.35 1372.92 3386.52C1373.89 3412.51 1369.91 3447.45 1367.53 3476.11C1358.54 3584.07 1341.35 3673.61 1318.69 3727.9C1313.67 3739.94 1308.5 3749.98 1302.95 3757.59C1302.11 3758.75 1301 3760.02 1299.9 3761.19C1296.81 3757.53 1292.42 3751.96 1289.57 3746.78C1282.87 3734.6 1269.88 3727.23 1255.98 3727.72C1242.08 3728.21 1229.65 3736.47 1223.82 3749.09C1196.03 3809.23 1168.64 3855.32 1143.74 3880.41C1140.2 3883.98 1135.35 3887.55 1131.8 3889.99C1130.36 3887.11 1128.68 3883.47 1127.72 3880.35C1121.99 3861.81 1119.33 3836.22 1118.96 3805.19C1118.78 3789.93 1109.21 3776.36 1094.9 3771.06C1080.59 3765.76 1064.49 3769.84 1054.42 3781.3C1022.59 3817.54 993.43 3845.35 968.68 3861.95C961.63 3866.68 952.35 3870.71 946.53 3873.01C945.71 3868.31 944.77 3861.61 944.89 3855.94C945.17 3842.04 937.61 3829.16 925.34 3822.64C913.06 3816.12 898.16 3817.05 886.8 3825.07C832.66 3863.26 785.9 3889.48 751.78 3898.76C747.09 3900.04 741.34 3900.71 737.08 3901.05C737.93 3894.31 739.73 3882.91 743 3873.8C747.71 3860.7 744.64 3846.06 735.06 3835.96C725.48 3825.86 711.02 3822.02 697.69 3826.03C649.56 3840.51 581.41 3874.36 550.28 3874.99C540.36 3875.19 531.68 3874.63 524.42 3872.92C522.14 3872.38 519.15 3871.11 517.51 3870.37L517.52 3870.34Z" fill="#5EA57A"/>
</g>
<mask id="mask1_134_174" style="mask-type:luminance" maskUnits="userSpaceOnUse" x="517" y="2433" width="1505" height="875">
<mask id="mask2_134_174" style="mask-type:luminance" maskUnits="userSpaceOnUse" x="517" y="2433" width="1505" height="1506">
<path d="M517.52 3870.34C542.35 3895.17 612.22 3890.2 708.34 3861.28C696.74 3893.53 696.02 3917.38 708.23 3929.6C733.79 3955.16 810.34 3924.08 908.06 3855.15C907.5 3882.24 913.35 3900.73 926.33 3908.22C955.16 3924.86 1013.32 3883.92 1082.13 3805.58C1082.97 3876.33 1095.9 3922.04 1121.47 3928.89C1156.39 3938.25 1207.14 3873.05 1257.3 3764.5C1270.36 3788.23 1284.67 3801.33 1299.66 3801.33C1347.67 3801.33 1388.62 3667.08 1404.27 3479.12C1406.77 3449.04 1410.78 3412.37 1409.76 3385.1C1408.88 3361.58 1398.15 3315.46 1398.15 3315.46C1398.15 3315.46 1444.27 3326.19 1467.79 3327.07C1495.07 3328.09 1531.74 3324.08 1561.81 3321.58C1749.78 3305.93 1884.02 3264.97 1884.02 3216.97C1884.02 3201.98 1870.93 3187.67 1847.19 3174.61C1955.74 3124.44 2020.94 3073.69 2011.58 3038.78C2004.73 3013.21 1959.02 3000.28 1888.27 2999.44C1966.6 2930.63 2007.55 2872.47 1990.91 2843.64C1983.41 2830.66 1964.92 2824.81 1937.84 2825.37C2006.77 2727.65 2037.85 2651.1 2012.29 2625.54C2000.08 2613.33 1976.22 2614.05 1943.97 2625.65C1973.23 2528.42 1977.97 2458.05 1952.16 2433.99C1952.9 2435.63 1954.17 2438.62 1954.71 2440.9C1956.43 2448.16 1956.99 2456.84 1956.78 2466.76C1956.15 2497.89 1923.14 2566.91 1908.66 2615.04C1904.65 2628.37 1908.49 2642.83 1918.59 2652.41C1928.69 2661.99 1943.33 2665.06 1956.43 2660.35C1965.54 2657.07 1976.94 2655.27 1983.68 2654.43C1983.34 2658.69 1982.67 2664.44 1981.39 2669.13C1972.11 2703.25 1945.89 2750.01 1907.7 2804.15C1899.69 2815.51 1898.75 2830.42 1905.27 2842.69C1911.79 2854.97 1924.67 2862.53 1938.57 2862.24C1944.24 2862.12 1950.94 2863.06 1955.64 2863.88C1953.34 2869.7 1949.31 2878.98 1944.58 2886.03C1927.97 2910.78 1900.16 2939.94 1863.93 2971.77C1852.46 2981.84 1848.39 2997.94 1853.69 3012.25C1858.99 3026.56 1872.56 3036.13 1887.82 3036.31C1918.86 3036.68 1944.44 3039.33 1962.98 3045.07C1966.09 3046.03 1969.74 3047.71 1972.62 3049.15C1970.19 3052.7 1966.61 3057.55 1963.04 3061.09C1937.95 3086 1891.85 3113.38 1831.71 3141.17C1819.09 3147 1810.82 3159.44 1810.34 3173.34C1809.85 3187.24 1817.23 3200.22 1829.41 3206.93C1834.59 3209.78 1840.16 3214.17 1843.82 3217.26C1842.65 3218.35 1841.38 3219.46 1840.22 3220.31C1832.6 3225.86 1822.57 3231.02 1810.53 3236.05C1756.25 3258.71 1666.7 3275.9 1558.74 3284.89C1530.08 3287.28 1495.14 3291.25 1469.15 3290.28C1447.98 3289.49 1406.49 3279.6 1406.49 3279.6C1394.09 3276.71 1381.08 3280.43 1372.08 3289.44C1363.08 3298.44 1359.36 3311.45 1362.24 3323.86C1362.24 3323.86 1372.12 3365.35 1372.92 3386.52C1373.89 3412.51 1369.91 3447.45 1367.53 3476.11C1358.54 3584.07 1341.35 3673.61 1318.69 3727.9C1313.67 3739.94 1308.5 3749.98 1302.95 3757.59C1302.11 3758.75 1301 3760.02 1299.9 3761.19C1296.81 3757.53 1292.42 3751.96 1289.57 3746.78C1282.87 3734.6 1269.88 3727.23 1255.98 3727.72C1242.08 3728.21 1229.65 3736.47 1223.82 3749.09C1196.03 3809.23 1168.64 3855.32 1143.74 3880.41C1140.2 3883.98 1135.35 3887.55 1131.8 3889.99C1130.36 3887.11 1128.68 3883.47 1127.72 3880.35C1121.99 3861.81 1119.33 3836.22 1118.96 3805.19C1118.78 3789.93 1109.21 3776.36 1094.9 3771.06C1080.59 3765.76 1064.49 3769.84 1054.42 3781.3C1022.59 3817.54 993.43 3845.35 968.68 3861.95C961.63 3866.68 952.35 3870.71 946.53 3873.01C945.71 3868.31 944.77 3861.61 944.89 3855.94C945.17 3842.04 937.61 3829.16 925.34 3822.64C913.06 3816.12 898.16 3817.05 886.8 3825.07C832.66 3863.26 785.9 3889.48 751.78 3898.76C747.09 3900.04 741.34 3900.71 737.08 3901.05C737.93 3894.31 739.73 3882.91 743 3873.8C747.71 3860.7 744.64 3846.06 735.06 3835.96C725.48 3825.86 711.02 3822.02 697.69 3826.03C649.56 3840.51 581.41 3874.36 550.28 3874.99C540.36 3875.19 531.68 3874.63 524.42 3872.92C522.14 3872.38 519.15 3871.11 517.51 3870.37L517.52 3870.34Z" fill="white"/>
</mask>
<g mask="url(#mask2_134_174)">
<path d="M1676.09 3307.95C1801.87 3287.76 1884.04 3254.52 1884.04 3216.96C1884.04 3201.97 1870.95 3187.66 1847.21 3174.6C1955.76 3124.43 2020.96 3073.68 2011.6 3038.77C2004.75 3013.2 1959.04 3000.27 1888.29 2999.43C1966.62 2930.62 2007.57 2872.46 1990.93 2843.63C1983.43 2830.65 1964.94 2824.8 1937.86 2825.36C2006.79 2727.64 2037.87 2651.09 2012.31 2625.53C2000.1 2613.32 1976.24 2614.04 1943.99 2625.64C1975.32 2521.54 1978.54 2448.22 1946.25 2429.58C1913.96 2410.94 1852.08 2450.38 1777.58 2529.57C1771.51 2495.84 1760.2 2474.82 1743.52 2470.35C1711.55 2461.78 1666.29 2515.74 1620.36 2608.27C1626.75 2505.55 1614.52 2436.49 1582.61 2427.94C1565.93 2423.47 1545.63 2436.02 1523.5 2462.19C1498.58 2356.37 1464.71 2291.27 1427.42 2291.27C1390.13 2291.27 1356.26 2356.37 1331.34 2462.19C1309.22 2436.02 1288.91 2423.46 1272.23 2427.94C1248.77 2434.23 1235.94 2473.24 1233.34 2534.29C1189.54 2521.88 1154.28 2524.21 1144.72 2558.24C1074.63 2416.39 1005.45 2333.52 956.66 2346.6C934.68 2352.49 918.85 2377.3 909.03 2417.22C792.86 2277.8 692.86 2202.17 645.36 2229.6C622.66 2242.71 614.34 2277.96 618.69 2329.79C478.39 2242.98 372.19 2209.46 332.18 2249.47C292.17 2289.48 325.68 2395.69 412.49 2535.98C360.66 2531.64 325.41 2539.95 312.3 2562.65C284.87 2610.16 360.5 2710.15 499.92 2826.32C460 2836.14 435.19 2851.97 429.3 2873.95C416.23 2922.74 499.09 2991.92 640.94 3062.01C606.9 3071.56 604.58 3106.83 616.99 3150.63C555.94 3153.23 516.92 3166.05 510.64 3189.52C506.17 3206.21 518.72 3226.51 544.9 3248.63C475.19 3265.05 423.15 3285.35 395.75 3307.95H1676.11H1676.09Z" fill="white"/>
</g>
</mask>
<g mask="url(#mask1_134_174)">
<path fill-rule="evenodd" clip-rule="evenodd" d="M1258.28 3237.17C1091.51 3278.53 921.65 3310.27 749.44 3329.18C651.74 3339.91 567.21 3344.98 497.76 3347.3C497.26 3347.32 497.24 3347.25 496.77 3347.42C495.81 3347.76 495.46 3348.63 495.4 3348.77C495.19 3349.28 495.19 3349.29 495.19 3349.84C495.19 3349.99 495.19 3350.88 495.93 3351.63C496.16 3351.86 496.44 3352.06 496.74 3352.19C497.05 3352.32 497.39 3352.37 497.73 3352.41C497.89 3352.43 505.75 3352.75 506.45 3352.78C765.98 3363.57 1026.84 3342.71 1287.77 3298.1C1212.13 3414.67 1123 3519.54 1003.88 3606.09C922.74 3665.05 832.2 3712.21 730.96 3749.12C730.48 3749.29 730.46 3749.26 730.06 3749.57C729.26 3750.21 729.18 3751.12 729.17 3751.28C729.13 3751.81 729.13 3751.82 729.29 3752.33C729.34 3752.48 729.6 3753.32 730.54 3753.81C730.83 3753.96 731.16 3754.06 731.48 3754.09C731.82 3754.12 732.16 3754.05 732.49 3754C732.6 3753.98 737.38 3752.68 737.81 3752.56C1022 3675.01 1202.44 3522.07 1347.95 3334.54L1549.69 3553.64L1551.97 3555.81C1552.09 3555.92 1552.21 3556.03 1552.34 3556.14C1553.15 3557.02 1553.97 3557.91 1554.78 3558.79C1555.49 3559.56 1556.28 3560.25 1557.06 3560.96C1557.83 3561.65 1558.6 3562.35 1559.42 3562.99C1561.04 3564.24 1562.66 3565.5 1564.37 3566.62C1566.06 3567.73 1567.8 3568.76 1569.59 3569.69C1571.36 3570.62 1573.18 3571.46 1575.03 3572.21C1576.87 3572.95 1578.75 3573.61 1580.65 3574.17C1582.54 3574.73 1584.47 3575.19 1586.4 3575.57C1588.33 3575.94 1590.29 3576.22 1592.24 3576.41C1594.2 3576.6 1596.16 3576.69 1598.13 3576.69C1600.1 3576.69 1602.06 3576.6 1604.02 3576.41C1605.98 3576.22 1607.93 3575.94 1609.86 3575.57C1611.8 3575.2 1613.72 3574.73 1615.61 3574.17C1617.51 3573.61 1619.39 3572.96 1621.23 3572.21C1623.08 3571.46 1624.9 3570.62 1626.67 3569.69C1628.46 3568.75 1630.2 3567.73 1631.89 3566.62C1633.6 3565.49 1635.22 3564.24 1636.84 3562.99C1637.66 3562.36 1638.43 3561.66 1639.2 3560.96C1639.57 3560.62 1641.53 3558.85 1643.65 3556.51C1644.34 3555.74 1645.04 3554.97 1645.68 3554.15C1646.93 3552.53 1648.19 3550.9 1649.31 3549.2C1650.42 3547.51 1651.45 3545.77 1652.39 3543.98C1653.32 3542.21 1654.16 3540.39 1654.91 3538.54C1655.65 3536.7 1656.3 3534.82 1656.87 3532.92C1657.43 3531.03 1657.89 3529.1 1658.27 3527.17C1658.64 3525.24 1658.92 3523.28 1659.11 3521.33C1659.3 3519.37 1659.39 3517.41 1659.39 3515.44C1659.39 3513.47 1659.3 3511.51 1659.11 3509.55C1658.92 3507.59 1658.64 3505.64 1658.27 3503.71C1657.9 3501.77 1657.43 3499.85 1656.87 3497.96C1656.31 3496.06 1655.66 3494.18 1654.91 3492.34C1654.16 3490.49 1653.32 3488.67 1652.39 3486.9C1651.45 3485.11 1650.43 3483.36 1649.31 3481.68C1648.18 3479.97 1646.93 3478.35 1645.68 3476.73C1645.04 3475.91 1644.35 3475.14 1643.65 3474.37L1641.48 3472.09L1639.46 3470.23C1639.16 3469.89 1638.86 3469.56 1638.56 3469.23C1637.86 3468.45 1637.16 3467.66 1636.39 3466.95C1561.59 3398.05 1486.77 3329.16 1411.96 3260.27C1599.57 3114.74 1752.59 2934.28 1830.16 2649.99C1830.28 2649.56 1831.58 2644.79 1831.6 2644.67C1831.66 2644.34 1831.73 2644 1831.69 2643.66C1831.66 2643.33 1831.56 2643.01 1831.41 2642.72C1830.92 2641.78 1830.08 2641.51 1829.93 2641.47C1829.42 2641.31 1829.41 2641.31 1828.88 2641.35C1828.73 2641.36 1827.81 2641.43 1827.17 2642.24C1826.85 2642.64 1826.89 2642.66 1826.72 2643.14C1789.81 2744.38 1742.64 2834.92 1683.68 2916.06C1597.13 3035.18 1492.25 3124.31 1375.69 3199.95C1420.3 2939.03 1441.15 2678.16 1430.37 2418.63C1430.34 2417.93 1430.01 2410.07 1430 2409.91C1429.96 2409.57 1429.91 2409.23 1429.78 2408.92C1429.65 2408.62 1429.45 2408.34 1429.22 2408.11C1428.47 2407.36 1427.58 2407.37 1427.43 2407.37C1426.88 2407.37 1426.87 2407.37 1426.36 2407.58C1426.22 2407.64 1425.34 2407.99 1425.01 2408.95C1424.84 2409.43 1424.91 2409.44 1424.89 2409.94C1422.58 2479.39 1417.5 2563.92 1406.77 2661.62C1387.85 2833.92 1356.1 3003.87 1314.7 3170.72C1057.09 2933.54 799.46 2696.4 541.89 2459.18L1258.25 3237.2L1258.28 3237.17Z" fill="#417355"/>
</g>
<mask id="mask3_134_174" style="mask-type:luminance" maskUnits="userSpaceOnUse" x="306" y="2224" width="1716" height="1084">
<path d="M1676.09 3307.95C1801.87 3287.76 1884.04 3254.52 1884.04 3216.96C1884.04 3201.97 1870.95 3187.66 1847.21 3174.6C1955.76 3124.43 2020.96 3073.68 2011.6 3038.77C2004.75 3013.2 1959.04 3000.27 1888.29 2999.43C1966.62 2930.62 2007.57 2872.46 1990.93 2843.63C1983.43 2830.65 1964.94 2824.8 1937.86 2825.36C2006.79 2727.64 2037.87 2651.09 2012.31 2625.53C2000.1 2613.32 1976.24 2614.04 1943.99 2625.64C1975.32 2521.54 1978.54 2448.22 1946.25 2429.58C1913.96 2410.94 1852.08 2450.38 1777.58 2529.57C1771.51 2495.84 1760.2 2474.82 1743.52 2470.35C1711.55 2461.78 1666.29 2515.74 1620.36 2608.27C1626.75 2505.55 1614.52 2436.49 1582.61 2427.94C1565.93 2423.47 1545.63 2436.02 1523.5 2462.19C1498.58 2356.37 1464.71 2291.27 1427.42 2291.27C1390.13 2291.27 1356.26 2356.37 1331.34 2462.19C1309.22 2436.02 1288.91 2423.46 1272.23 2427.94C1248.77 2434.23 1235.94 2473.24 1233.34 2534.29C1189.54 2521.88 1154.28 2524.21 1144.72 2558.24C1074.63 2416.39 1005.45 2333.52 956.66 2346.6C934.68 2352.49 918.85 2377.3 909.03 2417.22C792.86 2277.8 692.86 2202.17 645.36 2229.6C622.66 2242.71 614.34 2277.96 618.69 2329.79C478.39 2242.98 372.19 2209.46 332.18 2249.47C292.17 2289.48 325.68 2395.69 412.49 2535.98C360.66 2531.64 325.41 2539.95 312.3 2562.65C284.87 2610.16 360.5 2710.15 499.92 2826.32C460 2836.14 435.19 2851.97 429.3 2873.95C416.23 2922.74 499.09 2991.92 640.94 3062.01C606.9 3071.56 604.58 3106.83 616.99 3150.63C555.94 3153.23 516.92 3166.05 510.64 3189.52C506.17 3206.21 518.72 3226.51 544.9 3248.63C475.19 3265.05 423.15 3285.35 395.75 3307.95H1676.11H1676.09Z" fill="white"/>
</mask>
<g mask="url(#mask3_134_174)">
<path fill-rule="evenodd" clip-rule="evenodd" d="M99.7201 2017.02C-73.2199 2189.96 -15.4999 2528.49 228.53 2772.53C472.57 3016.56 811.1 3074.28 984.04 2901.34C1156.98 2728.4 1099.26 2389.87 855.23 2145.83C611.19 1901.8 272.66 1844.08 99.7201 2017.02Z" fill="#7BC096"/>
<path fill-rule="evenodd" clip-rule="evenodd" d="M1258.28 3237.17C1091.51 3278.53 921.65 3310.27 749.44 3329.18C651.74 3339.91 567.21 3344.98 497.76 3347.3C497.26 3347.32 497.24 3347.25 496.77 3347.42C495.81 3347.76 495.46 3348.63 495.4 3348.77C495.19 3349.28 495.19 3349.29 495.19 3349.84C495.19 3349.99 495.19 3350.88 495.93 3351.63C496.16 3351.86 496.44 3352.06 496.74 3352.19C497.05 3352.32 497.39 3352.37 497.73 3352.41C497.89 3352.43 505.75 3352.75 506.45 3352.78C765.98 3363.57 1026.84 3342.71 1287.77 3298.1C1212.13 3414.67 1123 3519.54 1003.88 3606.09C922.74 3665.05 832.2 3712.21 730.96 3749.12C730.48 3749.29 730.46 3749.26 730.06 3749.57C729.26 3750.21 729.18 3751.12 729.17 3751.28C729.13 3751.81 729.13 3751.82 729.29 3752.33C729.34 3752.48 729.6 3753.32 730.54 3753.81C730.83 3753.96 731.16 3754.06 731.48 3754.09C731.82 3754.12 732.16 3754.05 732.49 3754C732.6 3753.98 737.38 3752.68 737.81 3752.56C1022 3675.01 1202.44 3522.07 1347.95 3334.54L1549.69 3553.64L1551.97 3555.81C1552.09 3555.92 1552.21 3556.03 1552.34 3556.14C1553.15 3557.02 1553.97 3557.91 1554.78 3558.79C1555.49 3559.56 1556.28 3560.25 1557.06 3560.96C1557.83 3561.65 1558.6 3562.35 1559.42 3562.99C1561.04 3564.24 1562.66 3565.5 1564.37 3566.62C1566.06 3567.73 1567.8 3568.76 1569.59 3569.69C1571.36 3570.62 1573.18 3571.46 1575.03 3572.21C1576.87 3572.95 1578.75 3573.61 1580.65 3574.17C1582.54 3574.73 1584.47 3575.19 1586.4 3575.57C1588.33 3575.94 1590.29 3576.22 1592.24 3576.41C1594.2 3576.6 1596.16 3576.69 1598.13 3576.69C1600.1 3576.69 1602.06 3576.6 1604.02 3576.41C1605.98 3576.22 1607.93 3575.94 1609.86 3575.57C1611.8 3575.2 1613.72 3574.73 1615.61 3574.17C1617.51 3573.61 1619.39 3572.96 1621.23 3572.21C1623.08 3571.46 1624.9 3570.62 1626.67 3569.69C1628.46 3568.75 1630.2 3567.73 1631.89 3566.62C1633.6 3565.49 1635.22 3564.24 1636.84 3562.99C1637.66 3562.36 1638.43 3561.66 1639.2 3560.96C1639.57 3560.62 1641.53 3558.85 1643.65 3556.51C1644.34 3555.74 1645.04 3554.97 1645.68 3554.15C1646.93 3552.53 1648.19 3550.9 1649.31 3549.2C1650.42 3547.51 1651.45 3545.77 1652.39 3543.98C1653.32 3542.21 1654.16 3540.39 1654.91 3538.54C1655.65 3536.7 1656.3 3534.82 1656.87 3532.92C1657.43 3531.03 1657.89 3529.1 1658.27 3527.17C1658.64 3525.24 1658.92 3523.28 1659.11 3521.33C1659.3 3519.37 1659.39 3517.41 1659.39 3515.44C1659.39 3513.47 1659.3 3511.51 1659.11 3509.55C1658.92 3507.59 1658.64 3505.64 1658.27 3503.71C1657.9 3501.77 1657.43 3499.85 1656.87 3497.96C1656.31 3496.06 1655.66 3494.18 1654.91 3492.34C1654.16 3490.49 1653.32 3488.67 1652.39 3486.9C1651.45 3485.11 1650.43 3483.36 1649.31 3481.68C1648.18 3479.97 1646.93 3478.35 1645.68 3476.73C1645.04 3475.91 1644.35 3475.14 1643.65 3474.37L1641.48 3472.09L1639.46 3470.23C1639.16 3469.89 1638.86 3469.56 1638.56 3469.23C1637.86 3468.45 1637.16 3467.66 1636.39 3466.95C1561.59 3398.05 1486.77 3329.16 1411.96 3260.27C1599.57 3114.74 1752.59 2934.28 1830.16 2649.99C1830.28 2649.56 1831.58 2644.79 1831.6 2644.67C1831.66 2644.34 1831.73 2644 1831.69 2643.66C1831.66 2643.33 1831.56 2643.01 1831.41 2642.72C1830.92 2641.78 1830.08 2641.51 1829.93 2641.47C1829.42 2641.31 1829.41 2641.31 1828.88 2641.35C1828.73 2641.36 1827.81 2641.43 1827.17 2642.24C1826.85 2642.64 1826.89 2642.66 1826.72 2643.14C1789.81 2744.38 1742.64 2834.92 1683.68 2916.06C1597.13 3035.18 1492.25 3124.31 1375.69 3199.95C1420.3 2939.03 1441.15 2678.16 1430.37 2418.63C1430.34 2417.93 1430.01 2410.07 1430 2409.91C1429.96 2409.57 1429.91 2409.23 1429.78 2408.92C1429.65 2408.62 1429.45 2408.34 1429.22 2408.11C1428.47 2407.36 1427.58 2407.37 1427.43 2407.37C1426.88 2407.37 1426.87 2407.37 1426.36 2407.58C1426.22 2407.64 1425.34 2407.99 1425.01 2408.95C1424.84 2409.43 1424.91 2409.44 1424.89 2409.94C1422.58 2479.39 1417.5 2563.92 1406.77 2661.62C1387.85 2833.92 1356.1 3003.87 1314.7 3170.72C1057.09 2933.54 799.46 2696.4 541.89 2459.18L1258.25 3237.2L1258.28 3237.17Z" fill="#417355"/>
</g>
<path d="M1676.09 3307.95C1801.87 3287.76 1884.04 3254.52 1884.04 3216.96C1884.04 3201.97 1870.95 3187.66 1847.21 3174.6C1955.76 3124.43 2020.96 3073.68 2011.6 3038.77C2004.75 3013.2 1959.04 3000.27 1888.29 2999.43C1966.62 2930.62 2007.57 2872.46 1990.93 2843.63C1983.43 2830.65 1964.94 2824.8 1937.86 2825.36C2006.79 2727.64 2037.87 2651.09 2012.31 2625.53C2000.1 2613.32 1976.24 2614.04 1943.99 2625.64C1975.32 2521.54 1978.54 2448.22 1946.25 2429.58C1913.96 2410.94 1852.08 2450.38 1777.58 2529.57C1771.51 2495.84 1760.2 2474.82 1743.52 2470.35C1711.55 2461.78 1666.29 2515.74 1620.36 2608.27C1626.75 2505.55 1614.52 2436.49 1582.61 2427.94C1565.93 2423.47 1545.63 2436.02 1523.5 2462.19C1498.58 2356.37 1464.71 2291.27 1427.42 2291.27C1390.13 2291.27 1356.26 2356.37 1331.34 2462.19C1309.22 2436.02 1288.91 2423.46 1272.23 2427.94C1248.77 2434.23 1235.94 2473.24 1233.34 2534.29C1189.54 2521.88 1154.28 2524.21 1144.72 2558.24C1074.63 2416.39 1005.45 2333.52 956.66 2346.6C934.68 2352.49 918.85 2377.3 909.03 2417.22C792.86 2277.8 692.86 2202.17 645.36 2229.6C622.66 2242.71 614.34 2277.96 618.69 2329.79C478.39 2242.98 372.19 2209.46 332.18 2249.47C292.17 2289.48 325.68 2395.69 412.49 2535.98C360.66 2531.64 325.41 2539.95 312.3 2562.65C284.87 2610.16 360.5 2710.15 499.92 2826.32C460 2836.14 435.19 2851.97 429.3 2873.95C416.23 2922.74 499.09 2991.92 640.94 3062.01C606.9 3071.56 604.58 3106.83 616.99 3150.63C555.94 3153.23 516.92 3166.05 510.64 3189.52C506.17 3206.21 518.72 3226.51 544.9 3248.63C475.19 3265.05 423.15 3285.35 395.75 3307.95H1676.11H1676.09Z" stroke="#6290B5" stroke-width="5" stroke-linecap="round" stroke-linejoin="round"/>
<path fill-rule="evenodd" clip-rule="evenodd" d="M3027.04 3307.95C2927.2 3291.93 2861.97 3265.54 2861.97 3235.72C2861.97 3223.82 2872.36 3212.46 2891.21 3202.09C2805.04 3162.27 2753.29 3121.98 2760.71 3094.26C2766.15 3073.96 2802.44 3063.7 2858.6 3063.03C2796.42 3008.41 2763.91 2962.24 2777.12 2939.35C2783.07 2929.04 2797.75 2924.41 2819.25 2924.85C2764.53 2847.28 2739.86 2786.51 2760.15 2766.22C2769.84 2756.52 2788.78 2757.1 2814.38 2766.31C2789.51 2683.67 2786.96 2625.47 2812.59 2610.67C2838.22 2595.87 2887.35 2627.18 2946.48 2690.04C2951.3 2663.27 2960.28 2646.58 2973.52 2643.03C2998.9 2636.23 3034.83 2679.06 3071.29 2752.51C3066.21 2670.97 3075.93 2616.14 3101.25 2609.36C3114.49 2605.81 3130.61 2615.78 3148.17 2636.55C3167.95 2552.55 3194.84 2500.87 3224.44 2500.87C3254.04 2500.87 3280.93 2552.55 3300.71 2636.55C3318.27 2615.77 3334.39 2605.81 3347.63 2609.36C3366.25 2614.35 3376.43 2645.32 3378.5 2693.79C3413.27 2683.94 3441.26 2685.79 3448.85 2712.81C3504.49 2600.21 3559.4 2534.42 3598.14 2544.8C3615.59 2549.48 3628.15 2569.17 3635.95 2600.86C3728.17 2490.18 3807.55 2430.15 3845.26 2451.92C3863.28 2462.32 3869.88 2490.31 3866.43 2531.45C3977.8 2462.54 4062.11 2435.93 4093.87 2467.69C4125.63 2499.45 4099.03 2583.76 4030.11 2695.13C4071.25 2691.68 4099.24 2698.28 4109.64 2716.3C4131.41 2754.01 4071.38 2833.39 3960.7 2925.61C3992.39 2933.41 4012.09 2945.97 4016.76 2963.42C4027.14 3002.15 3961.36 3057.07 3848.75 3112.71C3875.77 3120.29 3877.61 3148.29 3867.77 3183.06C3916.24 3185.13 3947.2 3195.3 3952.2 3213.93C3955.75 3227.17 3945.78 3243.29 3925.01 3260.85C3980.35 3273.88 4021.66 3290 4043.41 3307.94H3027.03L3027.04 3307.95Z" fill="#6BB98A"/>
<mask id="mask4_134_174" style="mask-type:luminance" maskUnits="userSpaceOnUse" x="2753" y="2447" width="1362" height="861">
<path d="M3027.04 3307.95C2927.2 3291.93 2861.97 3265.54 2861.97 3235.72C2861.97 3223.82 2872.36 3212.46 2891.21 3202.09C2805.04 3162.27 2753.29 3121.98 2760.71 3094.26C2766.15 3073.96 2802.44 3063.7 2858.6 3063.03C2796.42 3008.41 2763.91 2962.24 2777.12 2939.35C2783.07 2929.04 2797.75 2924.41 2819.25 2924.85C2764.53 2847.28 2739.86 2786.51 2760.15 2766.22C2769.84 2756.52 2788.78 2757.1 2814.38 2766.31C2789.51 2683.67 2786.96 2625.47 2812.59 2610.67C2838.22 2595.87 2887.35 2627.18 2946.48 2690.04C2951.3 2663.27 2960.28 2646.58 2973.52 2643.03C2998.9 2636.23 3034.83 2679.06 3071.29 2752.51C3066.21 2670.97 3075.93 2616.14 3101.25 2609.36C3114.49 2605.81 3130.61 2615.78 3148.17 2636.55C3167.95 2552.55 3194.84 2500.87 3224.44 2500.87C3254.04 2500.87 3280.93 2552.55 3300.71 2636.55C3318.27 2615.77 3334.39 2605.81 3347.63 2609.36C3366.25 2614.35 3376.43 2645.32 3378.5 2693.79C3413.27 2683.94 3441.26 2685.79 3448.85 2712.81C3504.49 2600.21 3559.4 2534.42 3598.14 2544.8C3615.59 2549.48 3628.15 2569.17 3635.95 2600.86C3728.17 2490.18 3807.55 2430.15 3845.26 2451.92C3863.28 2462.32 3869.88 2490.31 3866.43 2531.45C3977.8 2462.54 4062.11 2435.93 4093.87 2467.69C4125.63 2499.45 4099.03 2583.76 4030.11 2695.13C4071.25 2691.68 4099.24 2698.28 4109.64 2716.3C4131.41 2754.01 4071.38 2833.39 3960.7 2925.61C3992.39 2933.41 4012.09 2945.97 4016.76 2963.42C4027.14 3002.15 3961.36 3057.07 3848.75 3112.71C3875.77 3120.29 3877.61 3148.29 3867.77 3183.06C3916.24 3185.13 3947.2 3195.3 3952.2 3213.93C3955.75 3227.17 3945.78 3243.29 3925.01 3260.85C3980.35 3273.88 4021.66 3290 4043.41 3307.94H3027.03L3027.04 3307.95Z" fill="white"/>
</mask>
<g mask="url(#mask4_134_174)">
<path fill-rule="evenodd" clip-rule="evenodd" d="M3946.74 3754.39C3927.03 3774.1 3871.57 3770.16 3795.26 3747.2C3804.47 3772.8 3805.04 3791.74 3795.35 3801.43C3775.06 3821.72 3714.29 3797.05 3636.72 3742.33C3637.16 3763.83 3632.52 3778.51 3622.22 3784.46C3599.33 3797.67 3553.16 3765.17 3498.54 3702.98C3497.87 3759.14 3487.61 3795.43 3467.31 3800.87C3439.59 3808.3 3399.3 3756.55 3359.48 3670.37C3349.11 3689.21 3337.75 3699.61 3325.85 3699.61C3287.74 3699.61 3255.23 3593.04 3242.81 3443.83C3240.82 3419.95 3237.64 3390.84 3238.45 3369.19C3239.15 3350.52 3247.66 3313.91 3247.66 3313.91C3247.66 3313.91 3211.05 3322.43 3192.38 3323.12C3170.73 3323.93 3141.62 3320.75 3117.74 3318.76C2968.53 3306.34 2861.96 3273.82 2861.96 3235.71C2861.96 3223.81 2872.35 3212.45 2891.2 3202.08C2805.03 3162.26 2753.28 3121.97 2760.7 3094.25C2766.14 3073.95 2802.43 3063.69 2858.59 3063.02C2796.41 3008.4 2763.9 2962.23 2777.11 2939.34C2783.06 2929.03 2797.74 2924.4 2819.24 2924.84C2764.52 2847.27 2739.85 2786.5 2760.14 2766.21C2769.83 2756.51 2788.77 2757.09 2814.37 2766.3C2791.14 2689.12 2787.38 2633.26 2807.87 2614.15C2807.28 2615.45 2806.27 2617.83 2805.85 2619.64C2804.49 2625.4 2804.04 2632.29 2804.2 2640.17C2804.7 2664.88 2830.91 2719.67 2842.4 2757.88C2845.58 2768.46 2842.53 2779.94 2834.51 2787.54C2826.49 2795.14 2814.87 2797.58 2804.47 2793.84C2797.24 2791.24 2788.19 2789.81 2782.84 2789.14C2783.11 2792.52 2783.65 2797.08 2784.66 2800.81C2792.03 2827.89 2812.84 2865.01 2843.16 2907.99C2849.52 2917.01 2850.27 2928.84 2845.09 2938.59C2839.91 2948.34 2829.69 2954.34 2818.65 2954.11C2814.15 2954.02 2808.83 2954.76 2805.1 2955.41C2806.93 2960.03 2810.12 2967.4 2813.88 2972.99C2827.06 2992.63 2849.14 3015.78 2877.9 3041.05C2887 3049.05 2890.24 3061.83 2886.03 3073.19C2881.82 3084.55 2871.05 3092.15 2858.94 3092.29C2834.3 3092.58 2813.99 3094.69 2799.27 3099.24C2796.8 3100 2793.91 3101.33 2791.62 3102.48C2793.55 3105.3 2796.39 3109.15 2799.22 3111.96C2819.14 3131.73 2855.73 3153.47 2903.47 3175.53C2913.49 3180.16 2920.05 3190.03 2920.44 3201.06C2920.83 3212.09 2914.97 3222.4 2905.31 3227.72C2901.2 3229.98 2896.78 3233.47 2893.87 3235.92C2894.8 3236.79 2895.81 3237.67 2896.73 3238.34C2902.78 3242.75 2910.74 3246.85 2920.3 3250.83C2963.39 3268.81 3034.48 3282.47 3120.18 3289.6C3142.93 3291.49 3170.66 3294.65 3191.3 3293.88C3208.11 3293.25 3241.04 3285.41 3241.04 3285.41C3250.88 3283.12 3261.21 3286.07 3268.36 3293.22C3275.51 3300.37 3278.46 3310.7 3276.17 3320.54C3276.17 3320.54 3268.32 3353.47 3267.7 3370.28C3266.93 3390.92 3270.09 3418.65 3271.98 3441.4C3279.12 3527.1 3292.77 3598.19 3310.75 3641.28C3314.74 3650.83 3318.84 3658.8 3323.24 3664.85C3323.91 3665.77 3324.79 3666.78 3325.66 3667.71C3328.11 3664.8 3331.6 3660.38 3333.86 3656.27C3339.18 3646.6 3349.49 3640.75 3360.52 3641.13C3371.55 3641.52 3381.42 3648.08 3386.05 3658.1C3408.11 3705.84 3429.85 3742.43 3449.62 3762.35C3452.43 3765.18 3456.28 3768.02 3459.1 3769.95C3460.24 3767.66 3461.57 3764.77 3462.34 3762.3C3466.89 3747.59 3469 3727.27 3469.29 3702.63C3469.43 3690.51 3477.03 3679.74 3488.39 3675.54C3499.75 3671.34 3512.53 3674.57 3520.53 3683.67C3545.8 3712.44 3568.95 3734.51 3588.59 3747.7C3594.18 3751.46 3601.56 3754.65 3606.17 3756.48C3606.82 3752.75 3607.56 3747.43 3607.47 3742.93C3607.24 3731.89 3613.25 3721.67 3622.99 3716.49C3632.74 3711.31 3644.57 3712.06 3653.59 3718.42C3696.57 3748.73 3733.69 3769.55 3760.77 3776.92C3764.5 3777.93 3769.06 3778.46 3772.44 3778.74C3771.77 3773.39 3770.34 3764.34 3767.74 3757.11C3764 3746.71 3766.43 3735.09 3774.04 3727.07C3781.65 3719.05 3793.12 3716 3803.7 3719.18C3841.91 3730.68 3896.01 3757.55 3920.72 3758.05C3928.6 3758.21 3935.48 3757.77 3941.25 3756.4C3943.06 3755.97 3945.44 3754.96 3946.74 3754.38V3754.39Z" fill="#5EA57A"/>
</g>
<mask id="mask5_134_174" style="mask-type:luminance" maskUnits="userSpaceOnUse" x="2753" y="2614" width="1194" height="694">
<mask id="mask6_134_174" style="mask-type:luminance" maskUnits="userSpaceOnUse" x="2753" y="2614" width="1194" height="1195">
<path d="M3946.74 3754.39C3927.03 3774.1 3871.57 3770.16 3795.26 3747.2C3804.47 3772.8 3805.04 3791.74 3795.35 3801.43C3775.06 3821.72 3714.29 3797.05 3636.72 3742.33C3637.16 3763.83 3632.52 3778.51 3622.22 3784.46C3599.33 3797.67 3553.16 3765.17 3498.54 3702.98C3497.87 3759.14 3487.61 3795.43 3467.31 3800.87C3439.59 3808.3 3399.3 3756.55 3359.48 3670.37C3349.11 3689.21 3337.75 3699.61 3325.85 3699.61C3287.74 3699.61 3255.23 3593.04 3242.81 3443.83C3240.82 3419.95 3237.64 3390.84 3238.45 3369.19C3239.15 3350.52 3247.66 3313.91 3247.66 3313.91C3247.66 3313.91 3211.05 3322.43 3192.38 3323.12C3170.73 3323.93 3141.62 3320.75 3117.74 3318.76C2968.53 3306.34 2861.96 3273.82 2861.96 3235.71C2861.96 3223.81 2872.35 3212.45 2891.2 3202.08C2805.03 3162.26 2753.28 3121.97 2760.7 3094.25C2766.14 3073.95 2802.43 3063.69 2858.59 3063.02C2796.41 3008.4 2763.9 2962.23 2777.11 2939.34C2783.06 2929.03 2797.74 2924.4 2819.24 2924.84C2764.52 2847.27 2739.85 2786.5 2760.14 2766.21C2769.83 2756.51 2788.77 2757.09 2814.37 2766.3C2791.14 2689.12 2787.38 2633.26 2807.87 2614.15C2807.28 2615.45 2806.27 2617.83 2805.85 2619.64C2804.49 2625.4 2804.04 2632.29 2804.2 2640.17C2804.7 2664.88 2830.91 2719.67 2842.4 2757.88C2845.58 2768.46 2842.53 2779.94 2834.51 2787.54C2826.49 2795.14 2814.87 2797.58 2804.47 2793.84C2797.24 2791.24 2788.19 2789.81 2782.84 2789.14C2783.11 2792.52 2783.65 2797.08 2784.66 2800.81C2792.03 2827.89 2812.84 2865.01 2843.16 2907.99C2849.52 2917.01 2850.27 2928.84 2845.09 2938.59C2839.91 2948.34 2829.69 2954.34 2818.65 2954.11C2814.15 2954.02 2808.83 2954.76 2805.1 2955.41C2806.93 2960.03 2810.12 2967.4 2813.88 2972.99C2827.06 2992.63 2849.14 3015.78 2877.9 3041.05C2887 3049.05 2890.24 3061.83 2886.03 3073.19C2881.82 3084.55 2871.05 3092.15 2858.94 3092.29C2834.3 3092.58 2813.99 3094.69 2799.27 3099.24C2796.8 3100 2793.91 3101.33 2791.62 3102.48C2793.55 3105.3 2796.39 3109.15 2799.22 3111.96C2819.14 3131.73 2855.73 3153.47 2903.47 3175.53C2913.49 3180.16 2920.05 3190.03 2920.44 3201.06C2920.83 3212.09 2914.97 3222.4 2905.31 3227.72C2901.2 3229.98 2896.78 3233.47 2893.87 3235.92C2894.8 3236.79 2895.81 3237.67 2896.73 3238.34C2902.78 3242.75 2910.74 3246.85 2920.3 3250.83C2963.39 3268.81 3034.48 3282.47 3120.18 3289.6C3142.93 3291.49 3170.66 3294.65 3191.3 3293.88C3208.11 3293.25 3241.04 3285.41 3241.04 3285.41C3250.88 3283.12 3261.21 3286.07 3268.36 3293.22C3275.51 3300.37 3278.46 3310.7 3276.17 3320.54C3276.17 3320.54 3268.32 3353.47 3267.7 3370.28C3266.93 3390.92 3270.09 3418.65 3271.98 3441.4C3279.12 3527.1 3292.77 3598.19 3310.75 3641.28C3314.74 3650.83 3318.84 3658.8 3323.24 3664.85C3323.91 3665.77 3324.79 3666.78 3325.66 3667.71C3328.11 3664.8 3331.6 3660.38 3333.86 3656.27C3339.18 3646.6 3349.49 3640.75 3360.52 3641.13C3371.55 3641.52 3381.42 3648.08 3386.05 3658.1C3408.11 3705.84 3429.85 3742.43 3449.62 3762.35C3452.43 3765.18 3456.28 3768.02 3459.1 3769.95C3460.24 3767.66 3461.57 3764.77 3462.34 3762.3C3466.89 3747.59 3469 3727.27 3469.29 3702.63C3469.43 3690.51 3477.03 3679.74 3488.39 3675.54C3499.75 3671.34 3512.53 3674.57 3520.53 3683.67C3545.8 3712.44 3568.95 3734.51 3588.59 3747.7C3594.18 3751.46 3601.56 3754.65 3606.17 3756.48C3606.82 3752.75 3607.56 3747.43 3607.47 3742.93C3607.24 3731.89 3613.25 3721.67 3622.99 3716.49C3632.74 3711.31 3644.57 3712.06 3653.59 3718.42C3696.57 3748.73 3733.69 3769.55 3760.77 3776.92C3764.5 3777.93 3769.06 3778.46 3772.44 3778.74C3771.77 3773.39 3770.34 3764.34 3767.74 3757.11C3764 3746.71 3766.43 3735.09 3774.04 3727.07C3781.65 3719.05 3793.12 3716 3803.7 3719.18C3841.91 3730.68 3896.01 3757.55 3920.72 3758.05C3928.6 3758.21 3935.48 3757.77 3941.25 3756.4C3943.06 3755.97 3945.44 3754.96 3946.74 3754.38V3754.39Z" fill="white"/>
</mask>
<g mask="url(#mask6_134_174)">
<path d="M3027.04 3307.95C2927.2 3291.93 2861.97 3265.54 2861.97 3235.72C2861.97 3223.82 2872.36 3212.46 2891.21 3202.09C2805.04 3162.27 2753.29 3121.98 2760.71 3094.26C2766.15 3073.96 2802.44 3063.7 2858.6 3063.03C2796.42 3008.41 2763.91 2962.24 2777.12 2939.35C2783.07 2929.04 2797.75 2924.41 2819.25 2924.85C2764.53 2847.28 2739.86 2786.51 2760.15 2766.22C2769.84 2756.52 2788.78 2757.1 2814.38 2766.31C2789.51 2683.67 2786.96 2625.47 2812.59 2610.67C2838.22 2595.87 2887.35 2627.18 2946.48 2690.04C2951.3 2663.27 2960.28 2646.58 2973.52 2643.03C2998.9 2636.23 3034.83 2679.06 3071.29 2752.51C3066.21 2670.97 3075.93 2616.14 3101.25 2609.36C3114.49 2605.81 3130.61 2615.78 3148.17 2636.55C3167.95 2552.55 3194.84 2500.87 3224.44 2500.87C3254.04 2500.87 3280.93 2552.55 3300.71 2636.55C3318.27 2615.77 3334.39 2605.81 3347.63 2609.36C3366.25 2614.35 3376.43 2645.32 3378.5 2693.79C3413.27 2683.94 3441.26 2685.79 3448.85 2712.81C3504.49 2600.21 3559.4 2534.42 3598.14 2544.8C3615.59 2549.48 3628.15 2569.17 3635.95 2600.86C3728.17 2490.18 3807.55 2430.15 3845.26 2451.92C3863.28 2462.32 3869.88 2490.31 3866.43 2531.45C3977.8 2462.54 4062.11 2435.93 4093.87 2467.69C4125.63 2499.45 4099.03 2583.76 4030.11 2695.13C4071.25 2691.68 4099.24 2698.28 4109.64 2716.3C4131.41 2754.01 4071.38 2833.39 3960.7 2925.61C3992.39 2933.41 4012.09 2945.97 4016.76 2963.42C4027.14 3002.15 3961.36 3057.07 3848.75 3112.71C3875.77 3120.29 3877.61 3148.29 3867.77 3183.06C3916.24 3185.13 3947.2 3195.3 3952.2 3213.93C3955.75 3227.17 3945.78 3243.29 3925.01 3260.85C3980.35 3273.88 4021.66 3290 4043.41 3307.94H3027.03L3027.04 3307.95Z" fill="white"/>
</g>
</mask>
<g mask="url(#mask5_134_174)">
<path fill-rule="evenodd" clip-rule="evenodd" d="M3358.71 3251.76C3491.09 3284.6 3625.94 3309.79 3762.64 3324.8C3840.2 3333.32 3907.3 3337.35 3962.43 3339.18C3962.83 3339.19 3962.84 3339.14 3963.22 3339.27C3963.98 3339.54 3964.26 3340.23 3964.31 3340.35C3964.47 3340.76 3964.47 3340.76 3964.48 3341.2C3964.48 3341.32 3964.48 3342.02 3963.89 3342.62C3963.71 3342.8 3963.49 3342.96 3963.25 3343.06C3963 3343.17 3962.73 3343.2 3962.47 3343.24C3962.34 3343.26 3956.1 3343.51 3955.55 3343.54C3749.52 3352.1 3542.44 3335.55 3335.32 3300.13C3395.36 3392.66 3466.12 3475.92 3560.68 3544.62C3625.09 3591.42 3696.96 3628.87 3777.33 3658.17C3777.71 3658.31 3777.73 3658.28 3778.04 3658.53C3778.68 3659.04 3778.74 3659.76 3778.75 3659.89C3778.78 3660.31 3778.78 3660.32 3778.66 3660.72C3778.62 3660.84 3778.41 3661.51 3777.66 3661.89C3777.43 3662.01 3777.17 3662.09 3776.91 3662.11C3776.64 3662.14 3776.37 3662.08 3776.11 3662.04C3776.02 3662.02 3772.23 3660.99 3771.89 3660.9C3546.29 3599.34 3403.05 3477.93 3287.55 3329.07L3127.41 3503L3125.6 3504.72C3125.5 3504.81 3125.41 3504.9 3125.31 3504.98C3124.66 3505.68 3124.02 3506.38 3123.37 3507.08C3122.81 3507.69 3122.18 3508.24 3121.56 3508.8C3120.95 3509.35 3120.34 3509.91 3119.68 3510.41C3118.39 3511.4 3117.1 3512.4 3115.75 3513.29C3114.41 3514.17 3113.02 3514.99 3111.6 3515.73C3110.19 3516.47 3108.75 3517.13 3107.28 3517.73C3105.82 3518.32 3104.33 3518.84 3102.82 3519.28C3101.32 3519.72 3099.79 3520.09 3098.25 3520.39C3096.72 3520.69 3095.17 3520.91 3093.61 3521.06C3092.06 3521.21 3090.5 3521.28 3088.94 3521.28C3087.38 3521.28 3085.82 3521.21 3084.27 3521.06C3082.71 3520.91 3081.17 3520.69 3079.63 3520.39C3078.09 3520.09 3076.57 3519.72 3075.06 3519.28C3073.55 3518.83 3072.06 3518.32 3070.6 3517.73C3069.13 3517.14 3067.69 3516.47 3066.28 3515.73C3064.86 3514.99 3063.47 3514.17 3062.14 3513.29C3060.78 3512.39 3059.49 3511.4 3058.21 3510.41C3057.56 3509.91 3056.95 3509.35 3056.33 3508.8C3056.03 3508.53 3054.48 3507.13 3052.8 3505.27C3052.25 3504.66 3051.7 3504.05 3051.19 3503.39C3050.19 3502.1 3049.2 3500.82 3048.31 3499.46C3047.43 3498.12 3046.61 3496.74 3045.87 3495.32C3045.13 3493.91 3044.47 3492.47 3043.87 3491C3043.28 3489.54 3042.76 3488.05 3042.32 3486.54C3041.88 3485.04 3041.51 3483.51 3041.21 3481.97C3040.91 3480.44 3040.69 3478.89 3040.54 3477.33C3040.39 3475.78 3040.32 3474.22 3040.32 3472.66C3040.32 3471.1 3040.39 3469.54 3040.54 3467.99C3040.69 3466.44 3040.91 3464.89 3041.21 3463.35C3041.51 3461.81 3041.88 3460.29 3042.32 3458.78C3042.77 3457.27 3043.28 3455.78 3043.87 3454.32C3044.46 3452.85 3045.13 3451.4 3045.87 3450C3046.61 3448.58 3047.43 3447.19 3048.31 3445.86C3049.2 3444.5 3050.2 3443.21 3051.19 3441.93C3051.69 3441.28 3052.25 3440.67 3052.8 3440.05L3054.52 3438.24L3056.12 3436.76C3056.36 3436.49 3056.59 3436.23 3056.83 3435.96C3057.39 3435.34 3057.94 3434.71 3058.55 3434.15C3117.93 3379.46 3177.32 3324.77 3236.71 3270.09C3087.78 3154.56 2966.31 3011.31 2904.73 2785.63C2904.64 2785.29 2903.6 2781.5 2903.59 2781.41C2903.54 2781.15 2903.49 2780.88 2903.51 2780.61C2903.53 2780.35 2903.61 2780.09 2903.73 2779.86C2904.12 2779.11 2904.79 2778.9 2904.9 2778.86C2905.3 2778.73 2905.31 2778.73 2905.73 2778.77C2905.85 2778.78 2906.58 2778.84 2907.09 2779.47C2907.34 2779.79 2907.31 2779.8 2907.45 2780.18C2936.75 2860.55 2974.19 2932.42 3021 2996.84C3089.71 3091.4 3172.96 3162.16 3265.49 3222.2C3230.07 3015.07 3213.52 2807.99 3222.08 2601.97C3222.1 2601.42 3222.36 2595.17 3222.38 2595.05C3222.41 2594.78 3222.45 2594.51 3222.55 2594.26C3222.65 2594.02 3222.81 2593.8 3222.99 2593.62C3223.59 2593.03 3224.29 2593.03 3224.41 2593.03C3224.85 2593.03 3224.85 2593.03 3225.26 2593.2C3225.37 2593.24 3226.07 2593.52 3226.33 2594.29C3226.46 2594.67 3226.41 2594.68 3226.42 2595.08C3228.26 2650.21 3232.28 2717.31 3240.8 2794.87C3255.82 2931.65 3281.03 3066.56 3313.89 3199.01C3518.39 3010.73 3722.91 2822.48 3927.37 2634.17L3358.7 3251.78L3358.71 3251.76Z" fill="#417355"/>
</g>
<mask id="mask7_134_174" style="mask-type:luminance" maskUnits="userSpaceOnUse" x="2753" y="2447" width="1362" height="861">
<path d="M3027.04 3307.95C2927.2 3291.93 2861.97 3265.54 2861.97 3235.72C2861.97 3223.82 2872.36 3212.46 2891.21 3202.09C2805.04 3162.27 2753.29 3121.98 2760.71 3094.26C2766.15 3073.96 2802.44 3063.7 2858.6 3063.03C2796.42 3008.41 2763.91 2962.24 2777.12 2939.35C2783.07 2929.04 2797.75 2924.41 2819.25 2924.85C2764.53 2847.28 2739.86 2786.51 2760.15 2766.22C2769.84 2756.52 2788.78 2757.1 2814.38 2766.31C2789.51 2683.67 2786.96 2625.47 2812.59 2610.67C2838.22 2595.87 2887.35 2627.18 2946.48 2690.04C2951.3 2663.27 2960.28 2646.58 2973.52 2643.03C2998.9 2636.23 3034.83 2679.06 3071.29 2752.51C3066.21 2670.97 3075.93 2616.14 3101.25 2609.36C3114.49 2605.81 3130.61 2615.78 3148.17 2636.55C3167.95 2552.55 3194.84 2500.87 3224.44 2500.87C3254.04 2500.87 3280.93 2552.55 3300.71 2636.55C3318.27 2615.77 3334.39 2605.81 3347.63 2609.36C3366.25 2614.35 3376.43 2645.32 3378.5 2693.79C3413.27 2683.94 3441.26 2685.79 3448.85 2712.81C3504.49 2600.21 3559.4 2534.42 3598.14 2544.8C3615.59 2549.48 3628.15 2569.17 3635.95 2600.86C3728.17 2490.18 3807.55 2430.15 3845.26 2451.92C3863.28 2462.32 3869.88 2490.31 3866.43 2531.45C3977.8 2462.54 4062.11 2435.93 4093.87 2467.69C4125.63 2499.45 4099.03 2583.76 4030.11 2695.13C4071.25 2691.68 4099.24 2698.28 4109.64 2716.3C4131.41 2754.01 4071.38 2833.39 3960.7 2925.61C3992.39 2933.41 4012.09 2945.97 4016.76 2963.42C4027.14 3002.15 3961.36 3057.07 3848.75 3112.71C3875.77 3120.29 3877.61 3148.29 3867.77 3183.06C3916.24 3185.13 3947.2 3195.3 3952.2 3213.93C3955.75 3227.17 3945.78 3243.29 3925.01 3260.85C3980.35 3273.88 4021.66 3290 4043.41 3307.94H3027.03L3027.04 3307.95Z" fill="white"/>
</mask>
<g mask="url(#mask7_134_174)">
<path fill-rule="evenodd" clip-rule="evenodd" d="M4278.4 2283.17C4415.69 2420.46 4369.87 2689.19 4176.15 2882.91C3982.43 3076.63 3713.69 3122.45 3576.4 2985.17C3439.11 2847.88 3484.93 2579.15 3678.66 2385.43C3872.38 2191.71 4141.12 2145.89 4278.4 2283.18V2283.17Z" fill="#7BC096"/>
<path fill-rule="evenodd" clip-rule="evenodd" d="M3358.71 3251.76C3491.09 3284.6 3625.94 3309.79 3762.64 3324.8C3840.2 3333.32 3907.3 3337.35 3962.43 3339.18C3962.83 3339.19 3962.84 3339.14 3963.22 3339.27C3963.98 3339.54 3964.26 3340.23 3964.31 3340.35C3964.47 3340.76 3964.47 3340.76 3964.48 3341.2C3964.48 3341.32 3964.48 3342.02 3963.89 3342.62C3963.71 3342.8 3963.49 3342.96 3963.25 3343.06C3963 3343.17 3962.73 3343.2 3962.47 3343.24C3962.34 3343.26 3956.1 3343.51 3955.55 3343.54C3749.52 3352.1 3542.44 3335.55 3335.32 3300.13C3395.36 3392.66 3466.12 3475.92 3560.68 3544.62C3625.09 3591.42 3696.96 3628.87 3777.33 3658.17C3777.71 3658.31 3777.73 3658.28 3778.04 3658.53C3778.68 3659.04 3778.74 3659.76 3778.75 3659.89C3778.78 3660.31 3778.78 3660.32 3778.66 3660.72C3778.62 3660.84 3778.41 3661.51 3777.66 3661.89C3777.43 3662.01 3777.17 3662.09 3776.91 3662.11C3776.64 3662.14 3776.37 3662.08 3776.11 3662.04C3776.02 3662.02 3772.23 3660.99 3771.89 3660.9C3546.29 3599.34 3403.05 3477.93 3287.55 3329.07L3127.41 3503L3125.6 3504.72C3125.5 3504.81 3125.41 3504.9 3125.31 3504.98C3124.66 3505.68 3124.02 3506.38 3123.37 3507.08C3122.81 3507.69 3122.18 3508.24 3121.56 3508.8C3120.95 3509.35 3120.34 3509.91 3119.68 3510.41C3118.39 3511.4 3117.1 3512.4 3115.75 3513.29C3114.41 3514.17 3113.02 3514.99 3111.6 3515.73C3110.19 3516.47 3108.75 3517.13 3107.28 3517.73C3105.82 3518.32 3104.33 3518.84 3102.82 3519.28C3101.32 3519.72 3099.79 3520.09 3098.25 3520.39C3096.72 3520.69 3095.17 3520.91 3093.61 3521.06C3092.06 3521.21 3090.5 3521.28 3088.94 3521.28C3087.38 3521.28 3085.82 3521.21 3084.27 3521.06C3082.71 3520.91 3081.17 3520.69 3079.63 3520.39C3078.09 3520.09 3076.57 3519.72 3075.06 3519.28C3073.55 3518.83 3072.06 3518.32 3070.6 3517.73C3069.13 3517.14 3067.69 3516.47 3066.28 3515.73C3064.86 3514.99 3063.47 3514.17 3062.14 3513.29C3060.78 3512.39 3059.49 3511.4 3058.21 3510.41C3057.56 3509.91 3056.95 3509.35 3056.33 3508.8C3056.03 3508.53 3054.48 3507.13 3052.8 3505.27C3052.25 3504.66 3051.7 3504.05 3051.19 3503.39C3050.19 3502.1 3049.2 3500.82 3048.31 3499.46C3047.43 3498.12 3046.61 3496.74 3045.87 3495.32C3045.13 3493.91 3044.47 3492.47 3043.87 3491C3043.28 3489.54 3042.76 3488.05 3042.32 3486.54C3041.88 3485.04 3041.51 3483.51 3041.21 3481.97C3040.91 3480.44 3040.69 3478.89 3040.54 3477.33C3040.39 3475.78 3040.32 3474.22 3040.32 3472.66C3040.32 3471.1 3040.39 3469.54 3040.54 3467.99C3040.69 3466.44 3040.91 3464.89 3041.21 3463.35C3041.51 3461.81 3041.88 3460.29 3042.32 3458.78C3042.77 3457.27 3043.28 3455.78 3043.87 3454.32C3044.46 3452.85 3045.13 3451.4 3045.87 3450C3046.61 3448.58 3047.43 3447.19 3048.31 3445.86C3049.2 3444.5 3050.2 3443.21 3051.19 3441.93C3051.69 3441.28 3052.25 3440.67 3052.8 3440.05L3054.52 3438.24L3056.12 3436.76C3056.36 3436.49 3056.59 3436.23 3056.83 3435.96C3057.39 3435.34 3057.94 3434.71 3058.55 3434.15C3117.93 3379.46 3177.32 3324.77 3236.71 3270.09C3087.78 3154.56 2966.31 3011.31 2904.73 2785.63C2904.64 2785.29 2903.6 2781.5 2903.59 2781.41C2903.54 2781.15 2903.49 2780.88 2903.51 2780.61C2903.53 2780.35 2903.61 2780.09 2903.73 2779.86C2904.12 2779.11 2904.79 2778.9 2904.9 2778.86C2905.3 2778.73 2905.31 2778.73 2905.73 2778.77C2905.85 2778.78 2906.58 2778.84 2907.09 2779.47C2907.34 2779.79 2907.31 2779.8 2907.45 2780.18C2936.75 2860.55 2974.19 2932.42 3021 2996.84C3089.71 3091.4 3172.96 3162.16 3265.49 3222.2C3230.07 3015.07 3213.52 2807.99 3222.08 2601.97C3222.1 2601.42 3222.36 2595.17 3222.38 2595.05C3222.41 2594.78 3222.45 2594.51 3222.55 2594.26C3222.65 2594.02 3222.81 2593.8 3222.99 2593.62C3223.59 2593.03 3224.29 2593.03 3224.41 2593.03C3224.85 2593.03 3224.85 2593.03 3225.26 2593.2C3225.37 2593.24 3226.07 2593.52 3226.33 2594.29C3226.46 2594.67 3226.41 2594.68 3226.42 2595.08C3228.26 2650.21 3232.28 2717.31 3240.8 2794.87C3255.82 2931.65 3281.03 3066.56 3313.89 3199.01C3518.39 3010.73 3722.91 2822.48 3927.37 2634.17L3358.7 3251.78L3358.71 3251.76Z" fill="#417355"/>
</g>
<path d="M3027.04 3307.95C2927.2 3291.93 2861.97 3265.54 2861.97 3235.72C2861.97 3223.82 2872.36 3212.46 2891.21 3202.09C2805.04 3162.27 2753.29 3121.98 2760.71 3094.26C2766.15 3073.96 2802.44 3063.7 2858.6 3063.03C2796.42 3008.41 2763.91 2962.24 2777.12 2939.35C2783.07 2929.04 2797.75 2924.41 2819.25 2924.85C2764.53 2847.28 2739.86 2786.51 2760.15 2766.22C2769.84 2756.52 2788.78 2757.1 2814.38 2766.31C2789.51 2683.67 2786.96 2625.47 2812.59 2610.67C2838.22 2595.87 2887.35 2627.18 2946.48 2690.04C2951.3 2663.27 2960.28 2646.58 2973.52 2643.03C2998.9 2636.23 3034.83 2679.06 3071.29 2752.51C3066.21 2670.97 3075.93 2616.14 3101.25 2609.36C3114.49 2605.81 3130.61 2615.78 3148.17 2636.55C3167.95 2552.55 3194.84 2500.87 3224.44 2500.87C3254.04 2500.87 3280.93 2552.55 3300.71 2636.55C3318.27 2615.77 3334.39 2605.81 3347.63 2609.36C3366.25 2614.35 3376.43 2645.32 3378.5 2693.79C3413.27 2683.94 3441.26 2685.79 3448.85 2712.81C3504.49 2600.21 3559.4 2534.42 3598.14 2544.8C3615.59 2549.48 3628.15 2569.17 3635.95 2600.86C3728.17 2490.18 3807.55 2430.15 3845.26 2451.92C3863.28 2462.32 3869.88 2490.31 3866.43 2531.45C3977.8 2462.54 4062.11 2435.93 4093.87 2467.69C4125.63 2499.45 4099.03 2583.76 4030.11 2695.13C4071.25 2691.68 4099.24 2698.28 4109.64 2716.3C4131.41 2754.01 4071.38 2833.39 3960.7 2925.61C3992.39 2933.41 4012.09 2945.97 4016.76 2963.42C4027.14 3002.15 3961.36 3057.07 3848.75 3112.71C3875.77 3120.29 3877.61 3148.29 3867.77 3183.06C3916.24 3185.13 3947.2 3195.3 3952.2 3213.93C3955.75 3227.17 3945.78 3243.29 3925.01 3260.85C3980.35 3273.88 4021.66 3290 4043.41 3307.94H3027.03L3027.04 3307.95Z" stroke="#6290B5" stroke-width="5" stroke-linecap="round" stroke-linejoin="round"/>
<path fill-rule="evenodd" clip-rule="evenodd" d="M2573.31 2268.12H2699.52V3307.95H2194.67V2268.12H2320.88V2767.51C2320.88 2837.17 2377.43 2893.72 2447.09 2893.72C2516.75 2893.72 2573.3 2837.17 2573.3 2767.51V2268.12H2573.31Z" fill="#DCEBF4"/>
<mask id="mask8_134_174" style="mask-type:luminance" maskUnits="userSpaceOnUse" x="2194" y="2268" width="506" height="1040">
<path d="M2573.31 2268.12H2699.52V3307.95H2194.67V2268.12H2320.88V2767.51C2320.88 2837.17 2377.43 2893.72 2447.09 2893.72C2516.75 2893.72 2573.3 2837.17 2573.3 2767.51V2268.12H2573.31Z" fill="white"/>
</mask>
<g mask="url(#mask8_134_174)">
<path fill-rule="evenodd" clip-rule="evenodd" d="M3082.25 2684.51V2783.1H1723.01V2684.51H3082.25Z" fill="#BCD7E7"/>
</g>
<path d="M2573.31 2268.12H2699.52V3307.95H2194.67V2268.12H2320.88V2767.51C2320.88 2837.17 2377.43 2893.72 2447.09 2893.72C2516.75 2893.72 2573.3 2837.17 2573.3 2767.51V2268.12H2573.31Z" stroke="#6290B5" stroke-width="5" stroke-linecap="round" stroke-linejoin="round"/>
<path fill-rule="evenodd" clip-rule="evenodd" d="M3413.93 3110.35V3307.95H1480.27V3110.35H3413.93Z" fill="white"/>
<mask id="mask9_134_174" style="mask-type:luminance" maskUnits="userSpaceOnUse" x="1480" y="3110" width="1934" height="198">
<path d="M3413.93 3110.35V3307.95H1480.27V3110.35H3413.93Z" fill="white"/>
</mask>
<g mask="url(#mask9_134_174)">
<path fill-rule="evenodd" clip-rule="evenodd" d="M3413.93 3243.17V3307.74H1480.27V3243.17H3413.93Z" fill="#D9EBFA"/>
</g>
<path d="M3413.93 3110.35V3307.95H1480.27V3110.35H3413.93Z" stroke="#6290B5" stroke-width="5" stroke-linecap="round" stroke-linejoin="round"/>
<path fill-rule="evenodd" clip-rule="evenodd" d="M3730.26 968.36V2623.99C3730.26 2657.39 3703.14 2684.51 3669.74 2684.51H1224.47C1191.07 2684.51 1163.95 2657.39 1163.95 2623.99V968.36C1163.95 934.96 1191.07 907.84 1224.47 907.84H3669.74C3703.14 907.84 3730.26 934.96 3730.26 968.36Z" fill="white" stroke="#6290B5" stroke-width="5" stroke-linecap="round" stroke-linejoin="round"/>
<path fill-rule="evenodd" clip-rule="evenodd" d="M2551.55 651.59V2439.51H655.31V651.59H2551.55Z" fill="white" stroke="#6290B5" stroke-width="5" stroke-linecap="round" stroke-linejoin="round"/>
<path fill-rule="evenodd" clip-rule="evenodd" d="M2551.55 651.59V448.45H655.31V651.59H2551.55Z" fill="#C3DFF0" stroke="#6290B5" stroke-width="5" stroke-linecap="round" stroke-linejoin="round"/>
<path fill-rule="evenodd" clip-rule="evenodd" d="M1083.98 526.48V573.57H737.7V526.48H1083.98Z" fill="white" stroke="#6290B5" stroke-width="5" stroke-linecap="round" stroke-linejoin="round"/>
<path fill-rule="evenodd" clip-rule="evenodd" d="M1328.77 526.48V573.57H1175.11V526.48H1328.77Z" fill="white" stroke="#6290B5" stroke-width="5" stroke-linecap="round" stroke-linejoin="round"/>
<path fill-rule="evenodd" clip-rule="evenodd" d="M2011.56 833.53C2011.56 843.65 2003.34 851.87 1993.22 851.87H1768.18C1758.06 851.87 1749.84 843.65 1749.84 833.53C1749.84 823.41 1758.06 815.19 1768.18 815.19H1993.22C2003.34 815.19 2011.56 823.41 2011.56 833.53Z" fill="#A5CDEE" stroke="#6290B5" stroke-width="5" stroke-linecap="round" stroke-linejoin="round"/>
<path fill-rule="evenodd" clip-rule="evenodd" d="M1880.7 937.72C1880.7 943.37 1876.12 947.95 1870.47 947.95H1760.07C1754.42 947.95 1749.84 943.37 1749.84 937.72C1749.84 932.07 1754.42 927.49 1760.07 927.49H1870.47C1876.12 927.49 1880.7 932.07 1880.7 937.72Z" fill="#D8E7F3" stroke="#6290B5" stroke-width="5" stroke-linecap="round" stroke-linejoin="round"/>
<path fill-rule="evenodd" clip-rule="evenodd" d="M2114.34 937.72C2114.34 943.37 2109.75 947.95 2104.11 947.95H1916.56C1910.91 947.95 1906.33 943.37 1906.33 937.72C1906.33 932.07 1910.92 927.49 1916.56 927.49H2104.11C2109.76 927.49 2114.34 932.07 2114.34 937.72Z" fill="#D8E7F3" stroke="#6290B5" stroke-width="5" stroke-linecap="round" stroke-linejoin="round"/>
<path fill-rule="evenodd" clip-rule="evenodd" d="M2363.09 937.72C2363.09 943.37 2358.51 947.95 2352.86 947.95H2165.31C2159.66 947.95 2155.08 943.37 2155.08 937.72C2155.08 932.07 2159.66 927.49 2165.31 927.49H2352.86C2358.51 927.49 2363.09 932.07 2363.09 937.72Z" fill="#D8E7F3" stroke="#6290B5" stroke-width="5" stroke-linecap="round" stroke-linejoin="round"/>
<path fill-rule="evenodd" clip-rule="evenodd" d="M2469.5 937.72C2469.5 943.37 2464.91 947.95 2459.27 947.95H2414.06C2408.41 947.95 2403.83 943.37 2403.83 937.72C2403.83 932.07 2408.42 927.49 2414.06 927.49H2459.27C2464.92 927.49 2469.5 932.07 2469.5 937.72Z" fill="#D8E7F3" stroke="#6290B5" stroke-width="5" stroke-linecap="round" stroke-linejoin="round"/>
<path fill-rule="evenodd" clip-rule="evenodd" d="M2104.99 985.82C2104.99 991.47 2109.58 996.05 2115.22 996.05H2302.77C2308.42 996.05 2313 991.46 2313 985.82C2313 980.18 2308.41 975.59 2302.77 975.59H2115.22C2109.57 975.59 2104.99 980.17 2104.99 985.82Z" fill="#D8E7F3" stroke="#6290B5" stroke-width="5" stroke-linecap="round" stroke-linejoin="round"/>
<path fill-rule="evenodd" clip-rule="evenodd" d="M1856.24 985.82C1856.24 991.47 1860.83 996.05 1866.47 996.05H2054.02C2059.67 996.05 2064.25 991.46 2064.25 985.82C2064.25 980.18 2059.66 975.59 2054.02 975.59H1866.47C1860.82 975.59 1856.24 980.17 1856.24 985.82Z" fill="#D8E7F3" stroke="#6290B5" stroke-width="5" stroke-linecap="round" stroke-linejoin="round"/>
<path fill-rule="evenodd" clip-rule="evenodd" d="M1749.83 985.82C1749.83 991.47 1754.41 996.05 1760.06 996.05H1805.27C1810.92 996.05 1815.5 991.46 1815.5 985.82C1815.5 980.18 1810.91 975.59 1805.27 975.59H1760.06C1754.41 975.59 1749.83 980.17 1749.83 985.82Z" fill="#D8E7F3" stroke="#6290B5" stroke-width="5" stroke-linecap="round" stroke-linejoin="round"/>
<path fill-rule="evenodd" clip-rule="evenodd" d="M2130.6 1492.2C2130.6 1499.69 2124.52 1505.78 2117.02 1505.78H1950.48C1942.99 1505.78 1936.9 1499.7 1936.9 1492.2C1936.9 1484.7 1942.98 1478.62 1950.48 1478.62H2117.02C2124.51 1478.62 2130.6 1484.7 2130.6 1492.2Z" fill="#A5CDEE" stroke="#6290B5" stroke-width="5" stroke-linecap="round" stroke-linejoin="round"/>
<path fill-rule="evenodd" clip-rule="evenodd" d="M2033.76 1569.31C2033.76 1573.49 2030.37 1576.88 2026.19 1576.88H1944.49C1940.31 1576.88 1936.92 1573.49 1936.92 1569.31C1936.92 1565.13 1940.31 1561.74 1944.49 1561.74H2026.19C2030.37 1561.74 2033.76 1565.13 2033.76 1569.31Z" fill="#D8E7F3" stroke="#6290B5" stroke-width="5" stroke-linecap="round" stroke-linejoin="round"/>
<path fill-rule="evenodd" clip-rule="evenodd" d="M2206.66 1569.31C2206.66 1573.49 2203.27 1576.88 2199.09 1576.88H2060.29C2056.11 1576.88 2052.72 1573.49 2052.72 1569.31C2052.72 1565.13 2056.11 1561.74 2060.29 1561.74H2199.09C2203.27 1561.74 2206.66 1565.13 2206.66 1569.31Z" fill="#D8E7F3" stroke="#6290B5" stroke-width="5" stroke-linecap="round" stroke-linejoin="round"/>
<path fill-rule="evenodd" clip-rule="evenodd" d="M2390.75 1569.31C2390.75 1573.49 2387.36 1576.88 2383.18 1576.88H2244.38C2240.2 1576.88 2236.81 1573.49 2236.81 1569.31C2236.81 1565.13 2240.2 1561.74 2244.38 1561.74H2383.18C2387.36 1561.74 2390.75 1565.13 2390.75 1569.31Z" fill="#D8E7F3" stroke="#6290B5" stroke-width="5" stroke-linecap="round" stroke-linejoin="round"/>
<path fill-rule="evenodd" clip-rule="evenodd" d="M2469.5 1569.31C2469.5 1573.49 2466.11 1576.88 2461.93 1576.88H2428.47C2424.29 1576.88 2420.9 1573.49 2420.9 1569.31C2420.9 1565.13 2424.29 1561.74 2428.47 1561.74H2461.93C2466.11 1561.74 2469.5 1565.13 2469.5 1569.31Z" fill="#D8E7F3" stroke="#6290B5" stroke-width="5" stroke-linecap="round" stroke-linejoin="round"/>
<path fill-rule="evenodd" clip-rule="evenodd" d="M2199.75 1604.9C2199.75 1609.08 2203.14 1612.47 2207.32 1612.47H2346.12C2350.3 1612.47 2353.69 1609.08 2353.69 1604.9C2353.69 1600.72 2350.3 1597.33 2346.12 1597.33H2207.32C2203.14 1597.33 2199.75 1600.72 2199.75 1604.9Z" fill="#D8E7F3" stroke="#6290B5" stroke-width="5" stroke-linecap="round" stroke-linejoin="round"/>
<path fill-rule="evenodd" clip-rule="evenodd" d="M2015.66 1604.9C2015.66 1609.08 2019.05 1612.47 2023.23 1612.47H2162.03C2166.21 1612.47 2169.6 1609.08 2169.6 1604.9C2169.6 1600.72 2166.21 1597.33 2162.03 1597.33H2023.23C2019.05 1597.33 2015.66 1600.72 2015.66 1604.9Z" fill="#D8E7F3" stroke="#6290B5" stroke-width="5" stroke-linecap="round" stroke-linejoin="round"/>
<path fill-rule="evenodd" clip-rule="evenodd" d="M1936.91 1604.9C1936.91 1609.08 1940.3 1612.47 1944.48 1612.47H1977.94C1982.12 1612.47 1985.51 1609.08 1985.51 1604.9C1985.51 1600.72 1982.12 1597.33 1977.94 1597.33H1944.48C1940.3 1597.33 1936.91 1600.72 1936.91 1604.9Z" fill="#D8E7F3" stroke="#6290B5" stroke-width="5" stroke-linecap="round" stroke-linejoin="round"/>
<path fill-rule="evenodd" clip-rule="evenodd" d="M2011.56 2113.4C2011.56 2123.52 2003.34 2131.74 1993.22 2131.74H1768.18C1758.06 2131.74 1749.84 2123.52 1749.84 2113.4C1749.84 2103.28 1758.06 2095.06 1768.18 2095.06H1993.22C2003.34 2095.06 2011.56 2103.28 2011.56 2113.4Z" fill="#A5CDEE" stroke="#6290B5" stroke-width="5" stroke-linecap="round" stroke-linejoin="round"/>
<path fill-rule="evenodd" clip-rule="evenodd" d="M1880.7 2217.59C1880.7 2223.24 1876.12 2227.82 1870.47 2227.82H1760.07C1754.42 2227.82 1749.84 2223.23 1749.84 2217.59C1749.84 2211.95 1754.42 2207.36 1760.07 2207.36H1870.47C1876.12 2207.36 1880.7 2211.94 1880.7 2217.59Z" fill="#D8E7F3" stroke="#6290B5" stroke-width="5" stroke-linecap="round" stroke-linejoin="round"/>
<path fill-rule="evenodd" clip-rule="evenodd" d="M2114.34 2217.59C2114.34 2223.24 2109.75 2227.82 2104.11 2227.82H1916.56C1910.91 2227.82 1906.33 2223.23 1906.33 2217.59C1906.33 2211.95 1910.92 2207.36 1916.56 2207.36H2104.11C2109.76 2207.36 2114.34 2211.94 2114.34 2217.59Z" fill="#D8E7F3" stroke="#6290B5" stroke-width="5" stroke-linecap="round" stroke-linejoin="round"/>
<path fill-rule="evenodd" clip-rule="evenodd" d="M2363.09 2217.59C2363.09 2223.24 2358.51 2227.82 2352.86 2227.82H2165.31C2159.66 2227.82 2155.08 2223.23 2155.08 2217.59C2155.08 2211.95 2159.66 2207.36 2165.31 2207.36H2352.86C2358.51 2207.36 2363.09 2211.94 2363.09 2217.59Z" fill="#D8E7F3" stroke="#6290B5" stroke-width="5" stroke-linecap="round" stroke-linejoin="round"/>
<path fill-rule="evenodd" clip-rule="evenodd" d="M2469.5 2217.59C2469.5 2223.24 2464.91 2227.82 2459.27 2227.82H2414.06C2408.41 2227.82 2403.83 2223.23 2403.83 2217.59C2403.83 2211.95 2408.42 2207.36 2414.06 2207.36H2459.27C2464.92 2207.36 2469.5 2211.94 2469.5 2217.59Z" fill="#D8E7F3" stroke="#6290B5" stroke-width="5" stroke-linecap="round" stroke-linejoin="round"/>
<path fill-rule="evenodd" clip-rule="evenodd" d="M2104.99 2265.68C2104.99 2271.33 2109.58 2275.91 2115.22 2275.91H2302.77C2308.42 2275.91 2313 2271.32 2313 2265.68C2313 2260.04 2308.41 2255.45 2302.77 2255.45H2115.22C2109.57 2255.45 2104.99 2260.04 2104.99 2265.68Z" fill="#D8E7F3" stroke="#6290B5" stroke-width="5" stroke-linecap="round" stroke-linejoin="round"/>
<path fill-rule="evenodd" clip-rule="evenodd" d="M1856.24 2265.68C1856.24 2271.33 1860.83 2275.91 1866.47 2275.91H2054.02C2059.67 2275.91 2064.25 2271.32 2064.25 2265.68C2064.25 2260.04 2059.66 2255.45 2054.02 2255.45H1866.47C1860.82 2255.45 1856.24 2260.04 1856.24 2265.68Z" fill="#D8E7F3" stroke="#6290B5" stroke-width="5" stroke-linecap="round" stroke-linejoin="round"/>
<path fill-rule="evenodd" clip-rule="evenodd" d="M1749.83 2265.68C1749.83 2271.33 1754.41 2275.91 1760.06 2275.91H1805.27C1810.92 2275.91 1815.5 2271.32 1815.5 2265.68C1815.5 2260.04 1810.91 2255.45 1805.27 2255.45H1760.06C1754.41 2255.45 1749.83 2260.04 1749.83 2265.68Z" fill="#D8E7F3" stroke="#6290B5" stroke-width="5" stroke-linecap="round" stroke-linejoin="round"/>
<path fill-rule="evenodd" clip-rule="evenodd" d="M1272.63 950.83C1588.38 950.83 1844.74 1207.18 1844.74 1522.94C1844.74 1838.7 1588.39 2095.05 1272.63 2095.05C956.87 2095.05 700.52 1838.7 700.52 1522.94C700.52 1207.18 956.87 950.83 1272.63 950.83Z" fill="#C6D9F4" stroke="#6290B5" stroke-width="5" stroke-linecap="round" stroke-linejoin="round"/>
<path fill-rule="evenodd" clip-rule="evenodd" d="M1184.51 1418.14C1188.28 1413.16 1192.44 1408.38 1196.98 1403.84L1385.47 1215.35C1439.22 1161.6 1526.48 1161.6 1580.23 1215.35C1633.97 1269.1 1633.97 1356.36 1580.23 1410.11L1391.74 1598.6C1391.12 1599.22 1390.49 1599.84 1389.86 1600.45C1401.63 1571.06 1403.72 1538.68 1396.11 1508.23C1395.54 1505.94 1394.91 1503.66 1394.23 1501.39L1532.86 1362.76C1560.46 1335.16 1560.46 1290.33 1532.86 1262.73C1505.26 1235.13 1460.43 1235.13 1432.83 1262.73L1244.35 1451.22C1233.54 1462.03 1226.96 1475.49 1224.62 1489.52C1220.98 1511.3 1227.56 1534.46 1244.35 1551.26C1260.41 1567.32 1282.31 1574.04 1303.25 1571.41C1300.52 1576.75 1296.92 1581.76 1292.45 1586.23L1247.81 1630.87C1229.25 1624.23 1211.83 1613.48 1196.98 1598.62C1182.12 1583.77 1171.38 1566.35 1164.73 1547.79C1149.37 1504.87 1155.96 1455.82 1184.51 1418.16V1418.14Z" fill="white" stroke="#6290B5" stroke-width="5" stroke-linejoin="round"/>
<path fill-rule="evenodd" clip-rule="evenodd" d="M1316.22 1571.85C1316.15 1573.71 1315.69 1575.57 1314.81 1577.28C1311.48 1583.81 1307.09 1589.93 1301.63 1595.38L1256.99 1640.02C1255.75 1641.25 1254.31 1642.2 1252.75 1642.85L1300.92 1594.68C1307.67 1587.93 1312.77 1580.15 1316.22 1571.85ZM1376.87 1600.4C1376.87 1598.8 1377.18 1597.17 1377.8 1595.61C1388.55 1568.76 1390.46 1539.18 1383.51 1511.36C1382.99 1509.27 1382.41 1507.18 1381.79 1505.11C1381.31 1503.51 1381.15 1501.87 1381.29 1500.26C1382.51 1503.84 1383.57 1507.46 1384.48 1511.12C1391.86 1540.67 1389.32 1572.21 1376.87 1600.4Z" fill="white" stroke="#6290B5" stroke-width="5" stroke-linejoin="round"/>
<path fill-rule="evenodd" clip-rule="evenodd" d="M1376.87 1600.41C1374.22 1606.41 1371.13 1612.25 1367.58 1617.89C1362.19 1626.47 1355.76 1634.58 1348.29 1642.05L1159.8 1830.54C1106.05 1884.29 1018.79 1884.29 965.04 1830.54C911.29 1776.79 911.29 1689.52 965.04 1635.78L1153.53 1447.29C1153.53 1447.29 1153.62 1447.2 1153.67 1447.15C1141.62 1478.59 1140.47 1513.26 1150.24 1545.31L1012.41 1683.14C984.81 1710.75 984.81 1755.57 1012.41 1783.17C1040.01 1810.78 1084.84 1810.78 1112.44 1783.17L1300.93 1594.69C1307.68 1587.94 1312.78 1580.16 1316.23 1571.86C1316.76 1570.59 1317.25 1569.3 1317.7 1568.01C1326.35 1543.18 1320.76 1514.48 1300.94 1494.66C1285.18 1478.9 1263.81 1472.14 1243.24 1474.37C1245.88 1469.34 1249.31 1464.62 1253.54 1460.39L1298.51 1415.42C1316.68 1422.09 1333.73 1432.71 1348.3 1447.29C1363.73 1462.72 1374.73 1480.91 1381.3 1500.27C1382.52 1503.85 1383.58 1507.47 1384.49 1511.13C1391.87 1540.68 1389.33 1572.22 1376.88 1600.41H1376.87Z" fill="white" stroke="#6290B5" stroke-width="5" stroke-linejoin="round"/>
<path fill-rule="evenodd" clip-rule="evenodd" d="M3974.63 1904.05V2903.98H2902.11V1904.05H3974.63Z" fill="white"/>
<path fill-rule="evenodd" clip-rule="evenodd" d="M3090.35 2032.25V2089.03H2978.34V2032.25H3090.35Z" fill="#BAD1E9"/>
<path fill-rule="evenodd" clip-rule="evenodd" d="M3090.35 2418.5V2475.28H2978.34V2418.5H3090.35Z" fill="#BAD1E9"/>
<path fill-rule="evenodd" clip-rule="evenodd" d="M3593.2 2032.25V2089.03H3120.3V2032.25H3593.2Z" fill="#BAD1E9"/>
<path fill-rule="evenodd" clip-rule="evenodd" d="M3593.2 2418.5V2475.28H3120.3V2418.5H3593.2Z" fill="#BAD1E9"/>
<path fill-rule="evenodd" clip-rule="evenodd" d="M3898.4 2032.25V2089.03H3623.16V2032.25H3898.4Z" fill="#BAD1E9"/>
<path fill-rule="evenodd" clip-rule="evenodd" d="M3898.4 2418.5V2475.28H3623.16V2418.5H3898.4Z" fill="#BAD1E9"/>
<path fill-rule="evenodd" clip-rule="evenodd" d="M3090.35 2118V2389.53H2978.34V2118H3090.35Z" fill="#D5E1EF"/>
<path fill-rule="evenodd" clip-rule="evenodd" d="M3090.35 2504.25V2775.78H2978.34V2504.25H3090.35Z" fill="#D5E1EF"/>
<path fill-rule="evenodd" clip-rule="evenodd" d="M3593.2 2118V2389.53H3120.3V2118H3593.2Z" fill="#D5E1EF"/>
<path fill-rule="evenodd" clip-rule="evenodd" d="M3593.2 2504.25V2775.78H3120.3V2504.25H3593.2Z" fill="#D5E1EF"/>
<path fill-rule="evenodd" clip-rule="evenodd" d="M3898.4 2118V2389.53H3623.16V2118H3898.4Z" fill="#D5E1EF"/>
<path fill-rule="evenodd" clip-rule="evenodd" d="M3898.4 2504.25V2775.78H3623.16V2504.25H3898.4Z" fill="#D5E1EF"/>
<path d="M3974.63 1904.05V2903.98H2902.11V1904.05H3974.63Z" stroke="#6290B5" stroke-width="5" stroke-linecap="round" stroke-linejoin="round"/>
<path fill-rule="evenodd" clip-rule="evenodd" d="M3974.63 1745.2V1904.05H2902.11V1745.2H3974.63Z" fill="#CDA0DF" stroke="#6290B5" stroke-width="5" stroke-linecap="round" stroke-linejoin="round"/>
<path fill-rule="evenodd" clip-rule="evenodd" d="M2961.94 1805.99C2972.22 1805.99 2980.57 1814.34 2980.57 1824.62C2980.57 1834.9 2972.22 1843.25 2961.94 1843.25C2951.66 1843.25 2943.31 1834.9 2943.31 1824.62C2943.31 1814.34 2951.66 1805.99 2961.94 1805.99Z" fill="white" stroke="#6290B5" stroke-width="5" stroke-linecap="round" stroke-linejoin="round"/>
<path fill-rule="evenodd" clip-rule="evenodd" d="M3016.15 1805.99C3026.43 1805.99 3034.78 1814.34 3034.78 1824.62C3034.78 1834.9 3026.43 1843.25 3016.15 1843.25C3005.87 1843.25 2997.52 1834.9 2997.52 1824.62C2997.52 1814.34 3005.87 1805.99 3016.15 1805.99Z" fill="white" stroke="#6290B5" stroke-width="5" stroke-linecap="round" stroke-linejoin="round"/>
<path fill-rule="evenodd" clip-rule="evenodd" d="M3070.36 1805.99C3080.64 1805.99 3088.99 1814.34 3088.99 1824.62C3088.99 1834.9 3080.64 1843.25 3070.36 1843.25C3060.08 1843.25 3051.73 1834.9 3051.73 1824.62C3051.73 1814.34 3060.08 1805.99 3070.36 1805.99Z" fill="white" stroke="#6290B5" stroke-width="5" stroke-linecap="round" stroke-linejoin="round"/>
<path fill-rule="evenodd" clip-rule="evenodd" d="M3898.03 1819.97V1829.28C3898.03 1831.85 3895.94 1833.94 3893.37 1833.94H3261.31C3258.74 1833.94 3256.65 1831.85 3256.65 1829.28V1819.97C3256.65 1817.4 3258.74 1815.31 3261.31 1815.31H3893.37C3895.94 1815.31 3898.03 1817.4 3898.03 1819.97Z" fill="white" stroke="#6290B5" stroke-width="5" stroke-linecap="round" stroke-linejoin="round"/>
<path fill-rule="evenodd" clip-rule="evenodd" d="M3974.63 607.31V1607.24H2902.11V607.31H3974.63Z" fill="white"/>
<path fill-rule="evenodd" clip-rule="evenodd" d="M3917.56 792.66C3917.56 836.76 3881.75 872.57 3837.65 872.57H3039.09C2994.99 872.57 2959.18 836.76 2959.18 792.66C2959.18 748.56 2994.99 712.75 3039.09 712.75H3837.65C3881.75 712.75 3917.56 748.55 3917.56 792.66Z" fill="#DEEAF0"/>
<path fill-rule="evenodd" clip-rule="evenodd" d="M3834.01 735.45C3866.07 735.45 3892.11 761.08 3892.11 792.66C3892.11 824.24 3866.08 849.87 3834.01 849.87C3801.94 849.87 3775.91 824.24 3775.91 792.66C3775.91 761.08 3801.94 735.45 3834.01 735.45ZM3834.01 749.75C3858.06 749.75 3877.58 768.98 3877.58 792.65C3877.58 816.32 3858.05 835.56 3834.01 835.56C3809.97 835.56 3790.44 816.33 3790.44 792.65C3790.44 768.97 3809.96 749.75 3834.01 749.75Z" fill="#B4C9D4"/>
<path fill-rule="evenodd" clip-rule="evenodd" d="M3230.13 792.66C3230.13 799.2 3224.82 804.5 3218.29 804.5H2998.3C2991.76 804.5 2986.46 799.19 2986.46 792.66C2986.46 786.13 2991.77 780.82 2998.3 780.82H3218.29C3224.83 780.82 3230.13 786.13 3230.13 792.66Z" fill="#B4C9D4"/>
<path fill-rule="evenodd" clip-rule="evenodd" d="M3438.37 792.66C3438.37 799.2 3433.06 804.5 3426.53 804.5H3281.51C3274.97 804.5 3269.67 799.19 3269.67 792.66C3269.67 786.13 3274.98 780.82 3281.51 780.82H3426.53C3433.07 780.82 3438.37 786.13 3438.37 792.66Z" fill="#B4C9D4"/>
<path fill-rule="evenodd" clip-rule="evenodd" d="M3259.5 1397.61C3259.5 1405.29 3253.27 1411.52 3245.59 1411.52H2973.09C2965.41 1411.52 2959.18 1405.29 2959.18 1397.61C2959.18 1389.93 2965.41 1383.7 2973.09 1383.7H3245.59C3253.27 1383.7 3259.5 1389.93 3259.5 1397.61Z" fill="#B3C9D4"/>
<path fill-rule="evenodd" clip-rule="evenodd" d="M3259.5 1487.89C3259.5 1495.57 3253.27 1501.8 3245.59 1501.8H2973.09C2965.41 1501.8 2959.18 1495.57 2959.18 1487.89C2959.18 1480.21 2965.41 1473.98 2973.09 1473.98H3245.59C3253.27 1473.98 3259.5 1480.21 3259.5 1487.89Z" fill="#B3C9D4"/>
<path fill-rule="evenodd" clip-rule="evenodd" d="M3588.53 1397.61C3588.53 1405.29 3582.3 1411.52 3574.62 1411.52H3302.12C3294.44 1411.52 3288.21 1405.29 3288.21 1397.61C3288.21 1389.93 3294.44 1383.7 3302.12 1383.7H3574.62C3582.3 1383.7 3588.53 1389.93 3588.53 1397.61Z" fill="#B3C9D4"/>
<path fill-rule="evenodd" clip-rule="evenodd" d="M3588.53 1487.89C3588.53 1495.57 3582.3 1501.8 3574.62 1501.8H3302.12C3294.44 1501.8 3288.21 1495.57 3288.21 1487.89C3288.21 1480.21 3294.44 1473.98 3302.12 1473.98H3574.62C3582.3 1473.98 3588.53 1480.21 3588.53 1487.89Z" fill="#B3C9D4"/>
<path fill-rule="evenodd" clip-rule="evenodd" d="M3917.56 1397.61C3917.56 1405.29 3911.33 1411.52 3903.65 1411.52H3631.15C3623.47 1411.52 3617.24 1405.29 3617.24 1397.61C3617.24 1389.93 3623.47 1383.7 3631.15 1383.7H3903.65C3911.33 1383.7 3917.56 1389.93 3917.56 1397.61Z" fill="#B3C9D4"/>
<path fill-rule="evenodd" clip-rule="evenodd" d="M3917.56 1487.89C3917.56 1495.57 3911.33 1501.8 3903.65 1501.8H3631.15C3623.47 1501.8 3617.24 1495.57 3617.24 1487.89C3617.24 1480.21 3623.47 1473.98 3631.15 1473.98H3903.65C3911.33 1473.98 3917.56 1480.21 3917.56 1487.89Z" fill="#B3C9D4"/>
<path fill-rule="evenodd" clip-rule="evenodd" d="M3259.5 955.36V1300.91C3259.5 1312.13 3250.39 1321.24 3239.17 1321.24H2979.52C2968.3 1321.24 2959.19 1312.13 2959.19 1300.91V955.36C2959.19 944.14 2968.3 935.03 2979.52 935.03H3239.17C3250.39 935.03 3259.5 944.14 3259.5 955.36Z" fill="#DEEAF0"/>
<path fill-rule="evenodd" clip-rule="evenodd" d="M3588.53 955.36V1300.91C3588.53 1312.13 3579.42 1321.24 3568.2 1321.24H3308.55C3297.33 1321.24 3288.22 1312.13 3288.22 1300.91V955.36C3288.22 944.14 3297.33 935.03 3308.55 935.03H3568.2C3579.42 935.03 3588.53 944.14 3588.53 955.36Z" fill="#DEEAF0"/>
<path fill-rule="evenodd" clip-rule="evenodd" d="M3917.56 955.36V1300.91C3917.56 1312.13 3908.45 1321.24 3897.23 1321.24H3637.58C3626.36 1321.24 3617.25 1312.13 3617.25 1300.91V955.36C3617.25 944.14 3626.36 935.03 3637.58 935.03H3897.23C3908.45 935.03 3917.56 944.14 3917.56 955.36Z" fill="#DEEAF0"/>
<path d="M3974.63 607.31V1607.24H2902.11V607.31H3974.63Z" stroke="#6290B5" stroke-width="5" stroke-linecap="round" stroke-linejoin="round"/>
<path fill-rule="evenodd" clip-rule="evenodd" d="M3974.63 448.45V607.31H2902.11V448.45H3974.63Z" fill="#F3C67E" stroke="#6290B5" stroke-width="5" stroke-linecap="round" stroke-linejoin="round"/>
<path fill-rule="evenodd" clip-rule="evenodd" d="M2961.94 509.25C2972.22 509.25 2980.57 517.6 2980.57 527.88C2980.57 538.16 2972.22 546.51 2961.94 546.51C2951.66 546.51 2943.31 538.16 2943.31 527.88C2943.31 517.6 2951.66 509.25 2961.94 509.25Z" fill="white" stroke="#6290B5" stroke-width="5" stroke-linecap="round" stroke-linejoin="round"/>
<path fill-rule="evenodd" clip-rule="evenodd" d="M3016.15 509.25C3026.43 509.25 3034.78 517.6 3034.78 527.88C3034.78 538.16 3026.43 546.51 3016.15 546.51C3005.87 546.51 2997.52 538.16 2997.52 527.88C2997.52 517.6 3005.87 509.25 3016.15 509.25Z" fill="white" stroke="#6290B5" stroke-width="5" stroke-linecap="round" stroke-linejoin="round"/>
<path fill-rule="evenodd" clip-rule="evenodd" d="M3070.36 509.25C3080.64 509.25 3088.99 517.6 3088.99 527.88C3088.99 538.16 3080.64 546.51 3070.36 546.51C3060.08 546.51 3051.73 538.16 3051.73 527.88C3051.73 517.6 3060.08 509.25 3070.36 509.25Z" fill="white" stroke="#6290B5" stroke-width="5" stroke-linecap="round" stroke-linejoin="round"/>
<path fill-rule="evenodd" clip-rule="evenodd" d="M3898.03 523.22V532.53C3898.03 535.1 3895.94 537.19 3893.37 537.19H3261.31C3258.74 537.19 3256.65 535.1 3256.65 532.53V523.22C3256.65 520.65 3258.74 518.56 3261.31 518.56H3893.37C3895.94 518.56 3898.03 520.65 3898.03 523.22Z" fill="white" stroke="#6290B5" stroke-width="5" stroke-linecap="round" stroke-linejoin="round"/>
<path d="M174.15 3307.95H4246.66M1532.96 3458.67H2887.18M1350.53 3458.67H1010.69M3409.45 3458.67H3069.61" stroke="#6290B5" stroke-width="50" stroke-linejoin="round"/>
</g>
<defs>
<clipPath id="clip0_134_174">
<rect width="4357.57" height="3938.47" fill="white"/>
</clipPath>
</defs>
</svg>
